<mxfile host="app.diagrams.net" modified="2024-02-16T18:12:47.947Z" agent="Mozilla/5.0 (X11; Ubuntu; Linux x86_64; rv:122.0) Gecko/20100101 Firefox/122.0" etag="vZnwtkCcphbmivje1jRS" version="23.1.5" type="device">
  <diagram id="R2lEEEUBdFMjLlhIrx00" name="Page-1">
    <mxGraphModel dx="2336" dy="1757" grid="1" gridSize="10" guides="1" tooltips="1" connect="1" arrows="1" fold="1" page="1" pageScale="1" pageWidth="850" pageHeight="1100" math="0" shadow="0" extFonts="Permanent Marker^https://fonts.googleapis.com/css?family=Permanent+Marker">
      <root>
        <mxCell id="0" />
        <mxCell id="1" parent="0" />
        <mxCell id="swCDHV_uJjEk_oPD2tug-1" value="راننده" style="whiteSpace=wrap;html=1;align=center;" parent="1" vertex="1">
          <mxGeometry x="391" y="240" width="100" height="40" as="geometry" />
        </mxCell>
        <mxCell id="swCDHV_uJjEk_oPD2tug-2" value="&lt;u&gt;شناسه&lt;/u&gt;" style="ellipse;whiteSpace=wrap;html=1;align=center;" parent="1" vertex="1">
          <mxGeometry x="500" y="330" width="90" height="30" as="geometry" />
        </mxCell>
        <mxCell id="swCDHV_uJjEk_oPD2tug-7" value="&lt;div&gt;کد معرفی&lt;/div&gt;" style="ellipse;whiteSpace=wrap;html=1;align=center;" parent="1" vertex="1">
          <mxGeometry x="555" y="-40" width="100" height="40" as="geometry" />
        </mxCell>
        <mxCell id="swCDHV_uJjEk_oPD2tug-9" value="نام" style="ellipse;whiteSpace=wrap;html=1;align=center;" parent="1" vertex="1">
          <mxGeometry x="555" y="110" width="100" height="40" as="geometry" />
        </mxCell>
        <mxCell id="swCDHV_uJjEk_oPD2tug-11" value="نام خانوادگی" style="ellipse;whiteSpace=wrap;html=1;align=center;" parent="1" vertex="1">
          <mxGeometry x="555" y="10" width="100" height="40" as="geometry" />
        </mxCell>
        <mxCell id="swCDHV_uJjEk_oPD2tug-14" value="سن" style="ellipse;whiteSpace=wrap;html=1;align=center;" parent="1" vertex="1">
          <mxGeometry x="260" y="175" width="100" height="40" as="geometry" />
        </mxCell>
        <mxCell id="swCDHV_uJjEk_oPD2tug-16" value="ناتوانی" style="ellipse;whiteSpace=wrap;html=1;align=center;" parent="1" vertex="1">
          <mxGeometry x="270" y="130" width="100" height="40" as="geometry" />
        </mxCell>
        <mxCell id="swCDHV_uJjEk_oPD2tug-21" value="جنسیت" style="ellipse;whiteSpace=wrap;html=1;align=center;" parent="1" vertex="1">
          <mxGeometry x="320" y="30" width="100" height="40" as="geometry" />
        </mxCell>
        <mxCell id="swCDHV_uJjEk_oPD2tug-24" value="شماره ملی" style="ellipse;whiteSpace=wrap;html=1;align=center;" parent="1" vertex="1">
          <mxGeometry x="65" y="200" width="100" height="40" as="geometry" />
        </mxCell>
        <mxCell id="swCDHV_uJjEk_oPD2tug-26" value="شماره شبا" style="ellipse;whiteSpace=wrap;html=1;align=center;" parent="1" vertex="1">
          <mxGeometry x="211" y="290" width="100" height="40" as="geometry" />
        </mxCell>
        <mxCell id="swCDHV_uJjEk_oPD2tug-28" value="شماره تلفن همراه" style="ellipse;whiteSpace=wrap;html=1;align=center;" parent="1" vertex="1">
          <mxGeometry x="495" y="371" width="100" height="40" as="geometry" />
        </mxCell>
        <mxCell id="swCDHV_uJjEk_oPD2tug-30" value="عکس کارت ملی" style="ellipse;whiteSpace=wrap;html=1;align=center;" parent="1" vertex="1">
          <mxGeometry x="300" y="85" width="100" height="40" as="geometry" />
        </mxCell>
        <mxCell id="swCDHV_uJjEk_oPD2tug-31" value="عکس گواهینامه" style="ellipse;whiteSpace=wrap;html=1;align=center;" parent="1" vertex="1">
          <mxGeometry x="150" y="175" width="100" height="40" as="geometry" />
        </mxCell>
        <mxCell id="swCDHV_uJjEk_oPD2tug-32" value="عکس پروفایل" style="ellipse;whiteSpace=wrap;html=1;align=center;" parent="1" vertex="1">
          <mxGeometry x="190" y="245" width="100" height="40" as="geometry" />
        </mxCell>
        <mxCell id="QkZbBygxRby5PD8kks8j-1" value="معرفی کردن" style="shape=rhombus;perimeter=rhombusPerimeter;whiteSpace=wrap;html=1;align=center;" parent="1" vertex="1">
          <mxGeometry x="595" y="230" width="120" height="60" as="geometry" />
        </mxCell>
        <mxCell id="QkZbBygxRby5PD8kks8j-4" value="موجودی" style="ellipse;whiteSpace=wrap;html=1;align=center;" parent="1" vertex="1">
          <mxGeometry x="300" y="315" width="100" height="40" as="geometry" />
        </mxCell>
        <mxCell id="QkZbBygxRby5PD8kks8j-6" value="" style="endArrow=none;html=1;rounded=0;exitX=0.5;exitY=1;exitDx=0;exitDy=0;" parent="1" source="QkZbBygxRby5PD8kks8j-7" edge="1">
          <mxGeometry relative="1" as="geometry">
            <mxPoint x="340" y="430" as="sourcePoint" />
            <mxPoint x="440" y="400" as="targetPoint" />
          </mxGeometry>
        </mxCell>
        <mxCell id="QkZbBygxRby5PD8kks8j-7" value="d" style="ellipse;whiteSpace=wrap;html=1;aspect=fixed;" parent="1" vertex="1">
          <mxGeometry x="420" y="380" width="40" height="40" as="geometry" />
        </mxCell>
        <mxCell id="QkZbBygxRby5PD8kks8j-9" value="" style="shape=link;html=1;rounded=0;entryX=0.5;entryY=1;entryDx=0;entryDy=0;exitX=0.5;exitY=0;exitDx=0;exitDy=0;" parent="1" source="QkZbBygxRby5PD8kks8j-7" target="swCDHV_uJjEk_oPD2tug-1" edge="1">
          <mxGeometry relative="1" as="geometry">
            <mxPoint x="340" y="430" as="sourcePoint" />
            <mxPoint x="500" y="430" as="targetPoint" />
          </mxGeometry>
        </mxCell>
        <mxCell id="QkZbBygxRby5PD8kks8j-11" value="بکسی" style="rounded=1;arcSize=10;whiteSpace=wrap;html=1;align=center;" parent="1" vertex="1">
          <mxGeometry x="60" y="520" width="100" height="40" as="geometry" />
        </mxCell>
        <mxCell id="QkZbBygxRby5PD8kks8j-13" value="بکس بار" style="rounded=1;arcSize=10;whiteSpace=wrap;html=1;align=center;" parent="1" vertex="1">
          <mxGeometry x="390" y="520" width="100" height="40" as="geometry" />
        </mxCell>
        <mxCell id="QkZbBygxRby5PD8kks8j-14" value="بکسی باکس" style="rounded=1;arcSize=10;whiteSpace=wrap;html=1;align=center;" parent="1" vertex="1">
          <mxGeometry x="720" y="520" width="100" height="40" as="geometry" />
        </mxCell>
        <mxCell id="QkZbBygxRby5PD8kks8j-15" style="edgeStyle=orthogonalEdgeStyle;rounded=0;orthogonalLoop=1;jettySize=auto;html=1;exitX=0.5;exitY=1;exitDx=0;exitDy=0;" parent="1" edge="1">
          <mxGeometry relative="1" as="geometry">
            <mxPoint x="330" y="560" as="sourcePoint" />
            <mxPoint x="330" y="560" as="targetPoint" />
          </mxGeometry>
        </mxCell>
        <mxCell id="QkZbBygxRby5PD8kks8j-17" value="" style="endArrow=none;html=1;rounded=0;entryX=0.5;entryY=0;entryDx=0;entryDy=0;exitX=1;exitY=0.5;exitDx=0;exitDy=0;" parent="1" source="QkZbBygxRby5PD8kks8j-7" target="QkZbBygxRby5PD8kks8j-14" edge="1">
          <mxGeometry relative="1" as="geometry">
            <mxPoint x="340" y="430" as="sourcePoint" />
            <mxPoint x="500" y="430" as="targetPoint" />
          </mxGeometry>
        </mxCell>
        <mxCell id="QkZbBygxRby5PD8kks8j-18" value="" style="endArrow=none;html=1;rounded=0;entryX=0.5;entryY=0;entryDx=0;entryDy=0;exitX=0.5;exitY=1;exitDx=0;exitDy=0;" parent="1" source="QkZbBygxRby5PD8kks8j-7" target="QkZbBygxRby5PD8kks8j-13" edge="1">
          <mxGeometry relative="1" as="geometry">
            <mxPoint x="340" y="430" as="sourcePoint" />
            <mxPoint x="500" y="430" as="targetPoint" />
          </mxGeometry>
        </mxCell>
        <mxCell id="QkZbBygxRby5PD8kks8j-20" value="" style="endArrow=none;html=1;rounded=0;exitX=0.5;exitY=0;exitDx=0;exitDy=0;entryX=0;entryY=0.5;entryDx=0;entryDy=0;" parent="1" source="QkZbBygxRby5PD8kks8j-11" target="QkZbBygxRby5PD8kks8j-7" edge="1">
          <mxGeometry relative="1" as="geometry">
            <mxPoint x="340" y="430" as="sourcePoint" />
            <mxPoint x="500" y="430" as="targetPoint" />
          </mxGeometry>
        </mxCell>
        <mxCell id="QkZbBygxRby5PD8kks8j-23" value="" style="verticalLabelPosition=bottom;verticalAlign=top;html=1;shape=mxgraph.basic.arc;startAngle=0.1037481917906683;endAngle=0.5821606630035037;" parent="1" vertex="1">
          <mxGeometry x="534" y="416" width="30" height="30" as="geometry" />
        </mxCell>
        <mxCell id="QkZbBygxRby5PD8kks8j-24" value="" style="verticalLabelPosition=bottom;verticalAlign=top;html=1;shape=mxgraph.basic.arc;startAngle=0.21896156043940354;endAngle=0.75;" parent="1" vertex="1">
          <mxGeometry x="421" y="431" width="40" height="30" as="geometry" />
        </mxCell>
        <mxCell id="QkZbBygxRby5PD8kks8j-26" value="" style="verticalLabelPosition=bottom;verticalAlign=top;html=1;shape=mxgraph.basic.arc;startAngle=0.4113663696231857;endAngle=0.9394405292045783;" parent="1" vertex="1">
          <mxGeometry x="313" y="417" width="30" height="30" as="geometry" />
        </mxCell>
        <mxCell id="QkZbBygxRby5PD8kks8j-31" value="ماشین" style="whiteSpace=wrap;html=1;align=center;" parent="1" vertex="1">
          <mxGeometry x="60" y="730" width="100" height="40" as="geometry" />
        </mxCell>
        <mxCell id="QkZbBygxRby5PD8kks8j-42" value="" style="endArrow=none;html=1;rounded=0;entryX=0;entryY=0;entryDx=0;entryDy=0;exitX=1;exitY=0.25;exitDx=0;exitDy=0;" parent="1" source="swCDHV_uJjEk_oPD2tug-1" target="QkZbBygxRby5PD8kks8j-1" edge="1">
          <mxGeometry relative="1" as="geometry">
            <mxPoint x="330" y="480" as="sourcePoint" />
            <mxPoint x="490" y="480" as="targetPoint" />
            <Array as="points">
              <mxPoint x="520" y="220" />
            </Array>
          </mxGeometry>
        </mxCell>
        <mxCell id="QkZbBygxRby5PD8kks8j-43" value="" style="endArrow=none;html=1;rounded=0;entryX=1;entryY=0.75;entryDx=0;entryDy=0;exitX=0;exitY=1;exitDx=0;exitDy=0;" parent="1" source="QkZbBygxRby5PD8kks8j-1" target="swCDHV_uJjEk_oPD2tug-1" edge="1">
          <mxGeometry relative="1" as="geometry">
            <mxPoint x="330" y="480" as="sourcePoint" />
            <mxPoint x="490" y="480" as="targetPoint" />
            <Array as="points">
              <mxPoint x="520" y="300" />
            </Array>
          </mxGeometry>
        </mxCell>
        <mxCell id="QkZbBygxRby5PD8kks8j-45" value="&lt;div&gt;(0,1)&lt;/div&gt;&lt;div&gt;معرفی شده&lt;br&gt;&lt;/div&gt;" style="text;html=1;align=center;verticalAlign=middle;resizable=0;points=[];autosize=1;strokeColor=none;fillColor=none;" parent="1" vertex="1">
          <mxGeometry x="530" y="190" width="80" height="40" as="geometry" />
        </mxCell>
        <mxCell id="QkZbBygxRby5PD8kks8j-46" value="&lt;div&gt;(0,n)&lt;/div&gt;&lt;div&gt;معرف&lt;br&gt;&lt;/div&gt;" style="text;html=1;align=center;verticalAlign=middle;resizable=0;points=[];autosize=1;strokeColor=none;fillColor=none;" parent="1" vertex="1">
          <mxGeometry x="545" y="290" width="50" height="40" as="geometry" />
        </mxCell>
        <mxCell id="QkZbBygxRby5PD8kks8j-47" value="" style="endArrow=none;html=1;rounded=0;exitX=0.5;exitY=0;exitDx=0;exitDy=0;" parent="1" source="QkZbBygxRby5PD8kks8j-31" target="QkZbBygxRby5PD8kks8j-48" edge="1">
          <mxGeometry relative="1" as="geometry">
            <mxPoint x="330" y="580" as="sourcePoint" />
            <mxPoint x="110" y="680" as="targetPoint" />
          </mxGeometry>
        </mxCell>
        <mxCell id="QkZbBygxRby5PD8kks8j-48" value="ماشین داشتن" style="shape=rhombus;perimeter=rhombusPerimeter;whiteSpace=wrap;html=1;align=center;" parent="1" vertex="1">
          <mxGeometry x="60" y="610" width="100" height="60" as="geometry" />
        </mxCell>
        <mxCell id="QkZbBygxRby5PD8kks8j-49" value="" style="endArrow=none;html=1;rounded=0;exitX=0.5;exitY=0;exitDx=0;exitDy=0;entryX=0.5;entryY=1;entryDx=0;entryDy=0;" parent="1" source="QkZbBygxRby5PD8kks8j-48" target="QkZbBygxRby5PD8kks8j-11" edge="1">
          <mxGeometry relative="1" as="geometry">
            <mxPoint x="330" y="580" as="sourcePoint" />
            <mxPoint x="490" y="580" as="targetPoint" />
          </mxGeometry>
        </mxCell>
        <mxCell id="QkZbBygxRby5PD8kks8j-50" value="(1,1)" style="text;html=1;align=center;verticalAlign=middle;resizable=0;points=[];autosize=1;strokeColor=none;fillColor=none;" parent="1" vertex="1">
          <mxGeometry x="60" y="560" width="50" height="30" as="geometry" />
        </mxCell>
        <mxCell id="QkZbBygxRby5PD8kks8j-51" value="(1,1)" style="text;html=1;align=center;verticalAlign=middle;resizable=0;points=[];autosize=1;strokeColor=none;fillColor=none;" parent="1" vertex="1">
          <mxGeometry x="60" y="700" width="50" height="30" as="geometry" />
        </mxCell>
        <mxCell id="QkZbBygxRby5PD8kks8j-54" value="" style="endArrow=none;html=1;rounded=0;exitX=1;exitY=0.5;exitDx=0;exitDy=0;entryX=0.5;entryY=1;entryDx=0;entryDy=0;" parent="1" source="umlDn6B3DRz233x1YHds-15" target="QkZbBygxRby5PD8kks8j-13" edge="1">
          <mxGeometry relative="1" as="geometry">
            <mxPoint x="330" y="640" as="sourcePoint" />
            <mxPoint x="490" y="640" as="targetPoint" />
            <Array as="points">
              <mxPoint x="440" y="750" />
            </Array>
          </mxGeometry>
        </mxCell>
        <mxCell id="QkZbBygxRby5PD8kks8j-55" value="(1,1)" style="text;html=1;align=center;verticalAlign=middle;resizable=0;points=[];autosize=1;strokeColor=none;fillColor=none;" parent="1" vertex="1">
          <mxGeometry x="490" y="560" width="50" height="30" as="geometry" />
        </mxCell>
        <mxCell id="QkZbBygxRby5PD8kks8j-56" value="(1,1)" style="text;html=1;align=center;verticalAlign=middle;resizable=0;points=[];autosize=1;strokeColor=none;fillColor=none;" parent="1" vertex="1">
          <mxGeometry x="150" y="750" width="50" height="30" as="geometry" />
        </mxCell>
        <mxCell id="QkZbBygxRby5PD8kks8j-64" value="عکس کارت ماشین" style="ellipse;whiteSpace=wrap;html=1;align=center;" parent="1" vertex="1">
          <mxGeometry x="60" y="820" width="100" height="40" as="geometry" />
        </mxCell>
        <mxCell id="QkZbBygxRby5PD8kks8j-65" value="نوع سوخت" style="ellipse;whiteSpace=wrap;html=1;align=center;" parent="1" vertex="1">
          <mxGeometry x="-50" y="820" width="100" height="40" as="geometry" />
        </mxCell>
        <mxCell id="QkZbBygxRby5PD8kks8j-66" value="رنگ" style="ellipse;whiteSpace=wrap;html=1;align=center;" parent="1" vertex="1">
          <mxGeometry x="-130" y="770" width="100" height="40" as="geometry" />
        </mxCell>
        <mxCell id="QkZbBygxRby5PD8kks8j-67" value="ظرفیت" style="ellipse;whiteSpace=wrap;html=1;align=center;" parent="1" vertex="1">
          <mxGeometry x="-60" y="730" width="100" height="40" as="geometry" />
        </mxCell>
        <mxCell id="QkZbBygxRby5PD8kks8j-68" value="&lt;u&gt;پلاک&lt;/u&gt;" style="ellipse;whiteSpace=wrap;html=1;align=center;" parent="1" vertex="1">
          <mxGeometry x="170" y="820" width="100" height="40" as="geometry" />
        </mxCell>
        <mxCell id="QkZbBygxRby5PD8kks8j-69" value="مدل" style="ellipse;whiteSpace=wrap;html=1;align=center;" parent="1" vertex="1">
          <mxGeometry x="-60" y="680" width="100" height="40" as="geometry" />
        </mxCell>
        <mxCell id="QkZbBygxRby5PD8kks8j-71" value="" style="endArrow=none;html=1;rounded=0;exitX=0.944;exitY=0.023;exitDx=0;exitDy=0;entryX=0;entryY=0.5;entryDx=0;entryDy=0;exitPerimeter=0;" parent="1" source="swCDHV_uJjEk_oPD2tug-1" target="swCDHV_uJjEk_oPD2tug-9" edge="1">
          <mxGeometry relative="1" as="geometry">
            <mxPoint x="130" y="340" as="sourcePoint" />
            <mxPoint x="290" y="340" as="targetPoint" />
            <Array as="points">
              <mxPoint x="490" y="130" />
            </Array>
          </mxGeometry>
        </mxCell>
        <mxCell id="QkZbBygxRby5PD8kks8j-72" value="" style="endArrow=none;html=1;rounded=0;exitX=0;exitY=0.5;exitDx=0;exitDy=0;entryX=0.75;entryY=0;entryDx=0;entryDy=0;" parent="1" source="swCDHV_uJjEk_oPD2tug-11" target="swCDHV_uJjEk_oPD2tug-1" edge="1">
          <mxGeometry relative="1" as="geometry">
            <mxPoint x="130" y="340" as="sourcePoint" />
            <mxPoint x="290" y="340" as="targetPoint" />
            <Array as="points">
              <mxPoint x="466" y="30" />
            </Array>
          </mxGeometry>
        </mxCell>
        <mxCell id="QkZbBygxRby5PD8kks8j-73" value="" style="endArrow=none;html=1;rounded=0;exitX=0;exitY=0.5;exitDx=0;exitDy=0;entryX=0.63;entryY=0.025;entryDx=0;entryDy=0;entryPerimeter=0;" parent="1" source="swCDHV_uJjEk_oPD2tug-7" target="swCDHV_uJjEk_oPD2tug-1" edge="1">
          <mxGeometry relative="1" as="geometry">
            <mxPoint x="130" y="340" as="sourcePoint" />
            <mxPoint x="290" y="340" as="targetPoint" />
            <Array as="points">
              <mxPoint x="454" y="-20" />
            </Array>
          </mxGeometry>
        </mxCell>
        <mxCell id="QkZbBygxRby5PD8kks8j-76" value="" style="endArrow=none;html=1;rounded=0;entryX=0.75;entryY=1;entryDx=0;entryDy=0;exitX=0;exitY=0.45;exitDx=0;exitDy=0;exitPerimeter=0;" parent="1" source="swCDHV_uJjEk_oPD2tug-28" target="swCDHV_uJjEk_oPD2tug-1" edge="1">
          <mxGeometry relative="1" as="geometry">
            <mxPoint x="130" y="340" as="sourcePoint" />
            <mxPoint x="290" y="340" as="targetPoint" />
            <Array as="points">
              <mxPoint x="466" y="390" />
            </Array>
          </mxGeometry>
        </mxCell>
        <mxCell id="QkZbBygxRby5PD8kks8j-77" value="" style="endArrow=none;html=1;rounded=0;exitX=0.888;exitY=0.991;exitDx=0;exitDy=0;entryX=0;entryY=0.5;entryDx=0;entryDy=0;exitPerimeter=0;" parent="1" source="swCDHV_uJjEk_oPD2tug-1" target="swCDHV_uJjEk_oPD2tug-2" edge="1">
          <mxGeometry relative="1" as="geometry">
            <mxPoint x="130" y="340" as="sourcePoint" />
            <mxPoint x="290" y="340" as="targetPoint" />
            <Array as="points">
              <mxPoint x="480" y="345" />
            </Array>
          </mxGeometry>
        </mxCell>
        <mxCell id="QkZbBygxRby5PD8kks8j-78" value="" style="endArrow=none;html=1;rounded=0;exitX=0.684;exitY=0.928;exitDx=0;exitDy=0;exitPerimeter=0;" parent="1" source="swCDHV_uJjEk_oPD2tug-30" edge="1">
          <mxGeometry relative="1" as="geometry">
            <mxPoint x="130" y="340" as="sourcePoint" />
            <mxPoint x="410" y="240" as="targetPoint" />
            <Array as="points">
              <mxPoint x="380" y="150" />
            </Array>
          </mxGeometry>
        </mxCell>
        <mxCell id="QkZbBygxRby5PD8kks8j-79" value="" style="endArrow=none;html=1;rounded=0;exitX=1;exitY=0.5;exitDx=0;exitDy=0;entryX=0.34;entryY=0.002;entryDx=0;entryDy=0;entryPerimeter=0;" parent="1" source="swCDHV_uJjEk_oPD2tug-21" edge="1" target="swCDHV_uJjEk_oPD2tug-1">
          <mxGeometry relative="1" as="geometry">
            <mxPoint x="130" y="340" as="sourcePoint" />
            <mxPoint x="420" y="240" as="targetPoint" />
            <Array as="points">
              <mxPoint x="420" y="70" />
            </Array>
          </mxGeometry>
        </mxCell>
        <mxCell id="QkZbBygxRby5PD8kks8j-80" value="" style="endArrow=none;html=1;rounded=0;exitX=1;exitY=1;exitDx=0;exitDy=0;entryX=0.105;entryY=-0.033;entryDx=0;entryDy=0;entryPerimeter=0;" parent="1" source="swCDHV_uJjEk_oPD2tug-16" target="swCDHV_uJjEk_oPD2tug-1" edge="1">
          <mxGeometry relative="1" as="geometry">
            <mxPoint x="130" y="340" as="sourcePoint" />
            <mxPoint x="290" y="340" as="targetPoint" />
            <Array as="points" />
          </mxGeometry>
        </mxCell>
        <mxCell id="QkZbBygxRby5PD8kks8j-81" value="" style="endArrow=none;html=1;rounded=0;exitX=0.622;exitY=0.972;exitDx=0;exitDy=0;exitPerimeter=0;" parent="1" source="swCDHV_uJjEk_oPD2tug-31" edge="1">
          <mxGeometry relative="1" as="geometry">
            <mxPoint x="140" y="344.5" as="sourcePoint" />
            <mxPoint x="390" y="250" as="targetPoint" />
            <Array as="points" />
          </mxGeometry>
        </mxCell>
        <mxCell id="QkZbBygxRby5PD8kks8j-82" value="" style="endArrow=none;html=1;rounded=0;exitX=1;exitY=0.5;exitDx=0;exitDy=0;entryX=0;entryY=0;entryDx=0;entryDy=0;" parent="1" source="swCDHV_uJjEk_oPD2tug-14" target="swCDHV_uJjEk_oPD2tug-1" edge="1">
          <mxGeometry relative="1" as="geometry">
            <mxPoint x="130" y="340" as="sourcePoint" />
            <mxPoint x="290" y="340" as="targetPoint" />
            <Array as="points" />
          </mxGeometry>
        </mxCell>
        <mxCell id="QkZbBygxRby5PD8kks8j-84" value="" style="endArrow=none;html=1;rounded=0;entryX=0;entryY=0.5;entryDx=0;entryDy=0;exitX=0.962;exitY=0.648;exitDx=0;exitDy=0;exitPerimeter=0;" parent="1" source="swCDHV_uJjEk_oPD2tug-24" target="swCDHV_uJjEk_oPD2tug-1" edge="1">
          <mxGeometry relative="1" as="geometry">
            <mxPoint x="130" y="340" as="sourcePoint" />
            <mxPoint x="290" y="340" as="targetPoint" />
          </mxGeometry>
        </mxCell>
        <mxCell id="QkZbBygxRby5PD8kks8j-85" value="" style="endArrow=none;html=1;rounded=0;entryX=0.11;entryY=1;entryDx=0;entryDy=0;exitX=1;exitY=0.5;exitDx=0;exitDy=0;entryPerimeter=0;" parent="1" source="swCDHV_uJjEk_oPD2tug-26" target="swCDHV_uJjEk_oPD2tug-1" edge="1">
          <mxGeometry relative="1" as="geometry">
            <mxPoint x="130" y="340" as="sourcePoint" />
            <mxPoint x="290" y="340" as="targetPoint" />
            <Array as="points" />
          </mxGeometry>
        </mxCell>
        <mxCell id="QkZbBygxRby5PD8kks8j-86" value="" style="endArrow=none;html=1;rounded=0;entryX=0.25;entryY=1;entryDx=0;entryDy=0;exitX=1;exitY=0.5;exitDx=0;exitDy=0;" parent="1" source="QkZbBygxRby5PD8kks8j-4" target="swCDHV_uJjEk_oPD2tug-1" edge="1">
          <mxGeometry relative="1" as="geometry">
            <mxPoint x="130" y="340" as="sourcePoint" />
            <mxPoint x="290" y="340" as="targetPoint" />
            <Array as="points">
              <mxPoint x="416" y="335" />
            </Array>
          </mxGeometry>
        </mxCell>
        <mxCell id="QkZbBygxRby5PD8kks8j-91" value="" style="endArrow=none;html=1;rounded=0;entryX=0.5;entryY=1;entryDx=0;entryDy=0;exitX=0.5;exitY=0;exitDx=0;exitDy=0;" parent="1" source="QkZbBygxRby5PD8kks8j-64" target="QkZbBygxRby5PD8kks8j-31" edge="1">
          <mxGeometry relative="1" as="geometry">
            <mxPoint x="130" y="820" as="sourcePoint" />
            <mxPoint x="290" y="820" as="targetPoint" />
          </mxGeometry>
        </mxCell>
        <mxCell id="QkZbBygxRby5PD8kks8j-92" value="" style="endArrow=none;html=1;rounded=0;exitX=0.5;exitY=0;exitDx=0;exitDy=0;entryX=0.19;entryY=1;entryDx=0;entryDy=0;entryPerimeter=0;" parent="1" source="QkZbBygxRby5PD8kks8j-65" target="QkZbBygxRby5PD8kks8j-31" edge="1">
          <mxGeometry relative="1" as="geometry">
            <mxPoint x="130" y="820" as="sourcePoint" />
            <mxPoint x="290" y="820" as="targetPoint" />
            <Array as="points">
              <mxPoint y="800" />
              <mxPoint x="80" y="800" />
            </Array>
          </mxGeometry>
        </mxCell>
        <mxCell id="QkZbBygxRby5PD8kks8j-93" value="" style="endArrow=none;html=1;rounded=0;exitX=1;exitY=0.5;exitDx=0;exitDy=0;entryX=0;entryY=0.5;entryDx=0;entryDy=0;" parent="1" source="QkZbBygxRby5PD8kks8j-67" target="QkZbBygxRby5PD8kks8j-31" edge="1">
          <mxGeometry relative="1" as="geometry">
            <mxPoint x="130" y="800" as="sourcePoint" />
            <mxPoint x="290" y="800" as="targetPoint" />
          </mxGeometry>
        </mxCell>
        <mxCell id="QkZbBygxRby5PD8kks8j-94" value="" style="endArrow=none;html=1;rounded=0;entryX=0;entryY=1;entryDx=0;entryDy=0;exitX=1;exitY=0.5;exitDx=0;exitDy=0;" parent="1" source="QkZbBygxRby5PD8kks8j-66" target="QkZbBygxRby5PD8kks8j-31" edge="1">
          <mxGeometry relative="1" as="geometry">
            <mxPoint x="130" y="800" as="sourcePoint" />
            <mxPoint x="290" y="800" as="targetPoint" />
          </mxGeometry>
        </mxCell>
        <mxCell id="QkZbBygxRby5PD8kks8j-95" value="" style="endArrow=none;html=1;rounded=0;exitX=0.75;exitY=1;exitDx=0;exitDy=0;entryX=0.5;entryY=0;entryDx=0;entryDy=0;" parent="1" source="QkZbBygxRby5PD8kks8j-31" target="QkZbBygxRby5PD8kks8j-68" edge="1">
          <mxGeometry relative="1" as="geometry">
            <mxPoint x="130" y="800" as="sourcePoint" />
            <mxPoint x="290" y="800" as="targetPoint" />
            <Array as="points">
              <mxPoint x="136" y="800" />
              <mxPoint x="220" y="800" />
            </Array>
          </mxGeometry>
        </mxCell>
        <mxCell id="QkZbBygxRby5PD8kks8j-96" value="" style="endArrow=none;html=1;rounded=0;entryX=1;entryY=0.5;entryDx=0;entryDy=0;" parent="1" source="QkZbBygxRby5PD8kks8j-31" target="QkZbBygxRby5PD8kks8j-69" edge="1">
          <mxGeometry relative="1" as="geometry">
            <mxPoint x="60" y="680" as="sourcePoint" />
            <mxPoint x="290" y="800" as="targetPoint" />
          </mxGeometry>
        </mxCell>
        <mxCell id="QkZbBygxRby5PD8kks8j-97" value="نام" style="ellipse;whiteSpace=wrap;html=1;align=center;" parent="1" vertex="1">
          <mxGeometry x="-160" y="720" width="100" height="40" as="geometry" />
        </mxCell>
        <mxCell id="QkZbBygxRby5PD8kks8j-98" value="سال تولید" style="ellipse;whiteSpace=wrap;html=1;align=center;" parent="1" vertex="1">
          <mxGeometry x="-160" y="640" width="100" height="40" as="geometry" />
        </mxCell>
        <mxCell id="QkZbBygxRby5PD8kks8j-99" value="" style="endArrow=none;html=1;rounded=0;entryX=1;entryY=1;entryDx=0;entryDy=0;exitX=0;exitY=0;exitDx=0;exitDy=0;" parent="1" source="QkZbBygxRby5PD8kks8j-69" target="QkZbBygxRby5PD8kks8j-98" edge="1">
          <mxGeometry relative="1" as="geometry">
            <mxPoint x="130" y="800" as="sourcePoint" />
            <mxPoint x="290" y="800" as="targetPoint" />
          </mxGeometry>
        </mxCell>
        <mxCell id="QkZbBygxRby5PD8kks8j-100" value="" style="endArrow=none;html=1;rounded=0;exitX=1;exitY=0;exitDx=0;exitDy=0;entryX=0;entryY=1;entryDx=0;entryDy=0;" parent="1" source="QkZbBygxRby5PD8kks8j-97" target="QkZbBygxRby5PD8kks8j-69" edge="1">
          <mxGeometry relative="1" as="geometry">
            <mxPoint x="130" y="800" as="sourcePoint" />
            <mxPoint x="290" y="800" as="targetPoint" />
          </mxGeometry>
        </mxCell>
        <mxCell id="QkZbBygxRby5PD8kks8j-101" value="موتور" style="rounded=1;arcSize=10;whiteSpace=wrap;html=1;align=center;" parent="1" vertex="1">
          <mxGeometry x="720" y="720" width="100" height="40" as="geometry" />
        </mxCell>
        <mxCell id="QkZbBygxRby5PD8kks8j-102" value="موتور داشتن" style="shape=rhombus;perimeter=rhombusPerimeter;whiteSpace=wrap;html=1;align=center;" parent="1" vertex="1">
          <mxGeometry x="715" y="610" width="110" height="50" as="geometry" />
        </mxCell>
        <mxCell id="QkZbBygxRby5PD8kks8j-103" value="" style="endArrow=none;html=1;rounded=0;entryX=0.5;entryY=0;entryDx=0;entryDy=0;exitX=0.5;exitY=1;exitDx=0;exitDy=0;" parent="1" source="QkZbBygxRby5PD8kks8j-14" target="QkZbBygxRby5PD8kks8j-102" edge="1">
          <mxGeometry relative="1" as="geometry">
            <mxPoint x="130" y="800" as="sourcePoint" />
            <mxPoint x="290" y="800" as="targetPoint" />
          </mxGeometry>
        </mxCell>
        <mxCell id="QkZbBygxRby5PD8kks8j-104" value="" style="endArrow=none;html=1;rounded=0;entryX=0.5;entryY=1;entryDx=0;entryDy=0;exitX=0.5;exitY=0;exitDx=0;exitDy=0;" parent="1" source="QkZbBygxRby5PD8kks8j-101" target="QkZbBygxRby5PD8kks8j-102" edge="1">
          <mxGeometry relative="1" as="geometry">
            <mxPoint x="130" y="800" as="sourcePoint" />
            <mxPoint x="290" y="800" as="targetPoint" />
          </mxGeometry>
        </mxCell>
        <mxCell id="QkZbBygxRby5PD8kks8j-105" value="(1,1)" style="text;html=1;align=center;verticalAlign=middle;resizable=0;points=[];autosize=1;strokeColor=none;fillColor=none;" parent="1" vertex="1">
          <mxGeometry x="710" y="560" width="50" height="30" as="geometry" />
        </mxCell>
        <mxCell id="QkZbBygxRby5PD8kks8j-106" value="(1,1)" style="text;html=1;align=center;verticalAlign=middle;resizable=0;points=[];autosize=1;strokeColor=none;fillColor=none;" parent="1" vertex="1">
          <mxGeometry x="710" y="690" width="50" height="30" as="geometry" />
        </mxCell>
        <mxCell id="QkZbBygxRby5PD8kks8j-107" value="سال تولید" style="ellipse;whiteSpace=wrap;html=1;align=center;" parent="1" vertex="1">
          <mxGeometry x="450" y="870" width="100" height="40" as="geometry" />
        </mxCell>
        <mxCell id="QkZbBygxRby5PD8kks8j-108" value="نام" style="ellipse;whiteSpace=wrap;html=1;align=center;" parent="1" vertex="1">
          <mxGeometry x="590" y="870" width="100" height="40" as="geometry" />
        </mxCell>
        <mxCell id="QkZbBygxRby5PD8kks8j-109" value="مدل" style="ellipse;whiteSpace=wrap;html=1;align=center;" parent="1" vertex="1">
          <mxGeometry x="520" y="810" width="100" height="40" as="geometry" />
        </mxCell>
        <mxCell id="QkZbBygxRby5PD8kks8j-110" value="اسکن کارت" style="ellipse;whiteSpace=wrap;html=1;align=center;" parent="1" vertex="1">
          <mxGeometry x="890" y="810" width="100" height="40" as="geometry" />
        </mxCell>
        <mxCell id="QkZbBygxRby5PD8kks8j-111" value="&lt;u&gt;پلاک&lt;/u&gt;" style="ellipse;whiteSpace=wrap;html=1;align=center;" parent="1" vertex="1">
          <mxGeometry x="770" y="810" width="100" height="40" as="geometry" />
        </mxCell>
        <mxCell id="QkZbBygxRby5PD8kks8j-112" value="ظرفیت" style="ellipse;whiteSpace=wrap;html=1;align=center;" parent="1" vertex="1">
          <mxGeometry x="650" y="810" width="100" height="40" as="geometry" />
        </mxCell>
        <mxCell id="QkZbBygxRby5PD8kks8j-113" value="" style="endArrow=none;html=1;rounded=0;exitX=1;exitY=0.75;exitDx=0;exitDy=0;entryX=0.5;entryY=0;entryDx=0;entryDy=0;" parent="1" source="QkZbBygxRby5PD8kks8j-101" target="QkZbBygxRby5PD8kks8j-110" edge="1">
          <mxGeometry relative="1" as="geometry">
            <mxPoint x="130" y="740" as="sourcePoint" />
            <mxPoint x="290" y="740" as="targetPoint" />
          </mxGeometry>
        </mxCell>
        <mxCell id="QkZbBygxRby5PD8kks8j-114" value="" style="endArrow=none;html=1;rounded=0;entryX=0.75;entryY=1;entryDx=0;entryDy=0;exitX=0.5;exitY=0;exitDx=0;exitDy=0;" parent="1" source="QkZbBygxRby5PD8kks8j-111" target="QkZbBygxRby5PD8kks8j-101" edge="1">
          <mxGeometry relative="1" as="geometry">
            <mxPoint x="130" y="740" as="sourcePoint" />
            <mxPoint x="290" y="740" as="targetPoint" />
          </mxGeometry>
        </mxCell>
        <mxCell id="QkZbBygxRby5PD8kks8j-115" value="" style="endArrow=none;html=1;rounded=0;entryX=0.25;entryY=1;entryDx=0;entryDy=0;exitX=0.5;exitY=0;exitDx=0;exitDy=0;" parent="1" source="QkZbBygxRby5PD8kks8j-112" target="QkZbBygxRby5PD8kks8j-101" edge="1">
          <mxGeometry relative="1" as="geometry">
            <mxPoint x="130" y="740" as="sourcePoint" />
            <mxPoint x="290" y="740" as="targetPoint" />
          </mxGeometry>
        </mxCell>
        <mxCell id="QkZbBygxRby5PD8kks8j-116" value="" style="endArrow=none;html=1;rounded=0;entryX=1;entryY=1;entryDx=0;entryDy=0;exitX=0.5;exitY=0;exitDx=0;exitDy=0;" parent="1" source="QkZbBygxRby5PD8kks8j-108" target="QkZbBygxRby5PD8kks8j-109" edge="1">
          <mxGeometry relative="1" as="geometry">
            <mxPoint x="130" y="740" as="sourcePoint" />
            <mxPoint x="290" y="740" as="targetPoint" />
          </mxGeometry>
        </mxCell>
        <mxCell id="QkZbBygxRby5PD8kks8j-117" value="" style="endArrow=none;html=1;rounded=0;entryX=0;entryY=1;entryDx=0;entryDy=0;exitX=0.5;exitY=0;exitDx=0;exitDy=0;" parent="1" source="QkZbBygxRby5PD8kks8j-107" target="QkZbBygxRby5PD8kks8j-109" edge="1">
          <mxGeometry relative="1" as="geometry">
            <mxPoint x="130" y="740" as="sourcePoint" />
            <mxPoint x="290" y="740" as="targetPoint" />
          </mxGeometry>
        </mxCell>
        <mxCell id="QkZbBygxRby5PD8kks8j-118" value="" style="endArrow=none;html=1;rounded=0;entryX=0;entryY=0.75;entryDx=0;entryDy=0;exitX=0.5;exitY=0;exitDx=0;exitDy=0;" parent="1" source="QkZbBygxRby5PD8kks8j-109" target="QkZbBygxRby5PD8kks8j-101" edge="1">
          <mxGeometry relative="1" as="geometry">
            <mxPoint x="130" y="740" as="sourcePoint" />
            <mxPoint x="290" y="740" as="targetPoint" />
          </mxGeometry>
        </mxCell>
        <mxCell id="QkZbBygxRby5PD8kks8j-119" value="تایید کردن" style="shape=rhombus;perimeter=rhombusPerimeter;whiteSpace=wrap;html=1;align=center;" parent="1" vertex="1">
          <mxGeometry x="700" y="140" width="120" height="60" as="geometry" />
        </mxCell>
        <mxCell id="QkZbBygxRby5PD8kks8j-121" value="" style="endArrow=none;html=1;rounded=0;exitX=0;exitY=0.5;exitDx=0;exitDy=0;entryX=1;entryY=0;entryDx=0;entryDy=0;" parent="1" source="QkZbBygxRby5PD8kks8j-119" target="swCDHV_uJjEk_oPD2tug-1" edge="1">
          <mxGeometry relative="1" as="geometry">
            <mxPoint x="130" y="350" as="sourcePoint" />
            <mxPoint x="290" y="350" as="targetPoint" />
            <Array as="points">
              <mxPoint x="520" y="170" />
            </Array>
          </mxGeometry>
        </mxCell>
        <mxCell id="QkZbBygxRby5PD8kks8j-123" value="(1,1)" style="text;html=1;align=center;verticalAlign=middle;resizable=0;points=[];autosize=1;strokeColor=none;fillColor=none;" parent="1" vertex="1">
          <mxGeometry x="510" y="140" width="50" height="30" as="geometry" />
        </mxCell>
        <mxCell id="QkZbBygxRby5PD8kks8j-124" value="کارمند" style="rounded=1;arcSize=10;whiteSpace=wrap;html=1;align=center;" parent="1" vertex="1">
          <mxGeometry x="940" y="150" width="100" height="40" as="geometry" />
        </mxCell>
        <mxCell id="QkZbBygxRby5PD8kks8j-125" value="" style="endArrow=none;html=1;rounded=0;entryX=0;entryY=0.5;entryDx=0;entryDy=0;exitX=1;exitY=0.5;exitDx=0;exitDy=0;" parent="1" source="QkZbBygxRby5PD8kks8j-119" target="QkZbBygxRby5PD8kks8j-124" edge="1">
          <mxGeometry relative="1" as="geometry">
            <mxPoint x="630" y="320" as="sourcePoint" />
            <mxPoint x="790" y="320" as="targetPoint" />
          </mxGeometry>
        </mxCell>
        <mxCell id="QkZbBygxRby5PD8kks8j-126" value="(0,n)" style="text;html=1;align=center;verticalAlign=middle;resizable=0;points=[];autosize=1;strokeColor=none;fillColor=none;" parent="1" vertex="1">
          <mxGeometry x="890" y="140" width="50" height="30" as="geometry" />
        </mxCell>
        <mxCell id="QkZbBygxRby5PD8kks8j-127" value="کد پرسنلی" style="ellipse;whiteSpace=wrap;html=1;align=center;fontStyle=4;" parent="1" vertex="1">
          <mxGeometry x="1150" y="155" width="100" height="40" as="geometry" />
        </mxCell>
        <mxCell id="QkZbBygxRby5PD8kks8j-129" value="سمت" style="ellipse;whiteSpace=wrap;html=1;align=center;" parent="1" vertex="1">
          <mxGeometry x="950" y="275" width="100" height="40" as="geometry" />
        </mxCell>
        <mxCell id="QkZbBygxRby5PD8kks8j-130" value="سن" style="ellipse;whiteSpace=wrap;html=1;align=center;" parent="1" vertex="1">
          <mxGeometry x="940" y="50" width="100" height="40" as="geometry" />
        </mxCell>
        <mxCell id="QkZbBygxRby5PD8kks8j-131" value="حقوق ماهانه" style="ellipse;whiteSpace=wrap;html=1;align=center;" parent="1" vertex="1">
          <mxGeometry x="1000" y="230" width="100" height="40" as="geometry" />
        </mxCell>
        <mxCell id="QkZbBygxRby5PD8kks8j-132" value="مدرک تحصیلی" style="ellipse;whiteSpace=wrap;html=1;align=center;" parent="1" vertex="1">
          <mxGeometry x="1110" y="230" width="100" height="40" as="geometry" />
        </mxCell>
        <mxCell id="QkZbBygxRby5PD8kks8j-133" value="میزان مهارت" style="ellipse;whiteSpace=wrap;html=1;align=center;" parent="1" vertex="1">
          <mxGeometry x="1200" y="200" width="100" height="40" as="geometry" />
        </mxCell>
        <mxCell id="QkZbBygxRby5PD8kks8j-134" value="دپارتمان" style="ellipse;whiteSpace=wrap;html=1;align=center;" parent="1" vertex="1">
          <mxGeometry x="830" y="230" width="100" height="40" as="geometry" />
        </mxCell>
        <mxCell id="QkZbBygxRby5PD8kks8j-135" value="عکس پروفایل" style="ellipse;whiteSpace=wrap;html=1;align=center;" parent="1" vertex="1">
          <mxGeometry x="800" y="185" width="100" height="40" as="geometry" />
        </mxCell>
        <mxCell id="QkZbBygxRby5PD8kks8j-136" value="نام خانوادگی" style="ellipse;whiteSpace=wrap;html=1;align=center;" parent="1" vertex="1">
          <mxGeometry x="1120" y="95" width="100" height="40" as="geometry" />
        </mxCell>
        <mxCell id="QkZbBygxRby5PD8kks8j-137" value="نام" style="ellipse;whiteSpace=wrap;html=1;align=center;" parent="1" vertex="1">
          <mxGeometry x="1225" y="115" width="100" height="40" as="geometry" />
        </mxCell>
        <mxCell id="QkZbBygxRby5PD8kks8j-138" value="شماره شبا" style="ellipse;whiteSpace=wrap;html=1;align=center;" parent="1" vertex="1">
          <mxGeometry x="1010" y="90" width="100" height="40" as="geometry" />
        </mxCell>
        <mxCell id="QkZbBygxRby5PD8kks8j-139" value="رمز عبور" style="ellipse;whiteSpace=wrap;html=1;align=center;" parent="1" vertex="1">
          <mxGeometry x="865" y="85" width="100" height="40" as="geometry" />
        </mxCell>
        <mxCell id="QkZbBygxRby5PD8kks8j-141" style="edgeStyle=orthogonalEdgeStyle;rounded=0;orthogonalLoop=1;jettySize=auto;html=1;exitX=0.5;exitY=1;exitDx=0;exitDy=0;" parent="1" source="QkZbBygxRby5PD8kks8j-132" target="QkZbBygxRby5PD8kks8j-132" edge="1">
          <mxGeometry relative="1" as="geometry" />
        </mxCell>
        <mxCell id="QkZbBygxRby5PD8kks8j-150" value="" style="endArrow=none;html=1;rounded=0;entryX=0;entryY=1;entryDx=0;entryDy=0;exitX=1;exitY=0;exitDx=0;exitDy=0;" parent="1" source="QkZbBygxRby5PD8kks8j-124" target="QkZbBygxRby5PD8kks8j-136" edge="1">
          <mxGeometry relative="1" as="geometry">
            <mxPoint x="630" y="280" as="sourcePoint" />
            <mxPoint x="790" y="280" as="targetPoint" />
          </mxGeometry>
        </mxCell>
        <mxCell id="QkZbBygxRby5PD8kks8j-151" value="" style="endArrow=none;html=1;rounded=0;entryX=0.5;entryY=1;entryDx=0;entryDy=0;exitX=0.75;exitY=0;exitDx=0;exitDy=0;" parent="1" source="QkZbBygxRby5PD8kks8j-124" target="QkZbBygxRby5PD8kks8j-138" edge="1">
          <mxGeometry relative="1" as="geometry">
            <mxPoint x="640" y="280" as="sourcePoint" />
            <mxPoint x="800" y="280" as="targetPoint" />
          </mxGeometry>
        </mxCell>
        <mxCell id="QkZbBygxRby5PD8kks8j-153" value="" style="endArrow=none;html=1;rounded=0;entryX=0.25;entryY=0;entryDx=0;entryDy=0;exitX=0.5;exitY=1;exitDx=0;exitDy=0;" parent="1" source="QkZbBygxRby5PD8kks8j-139" target="QkZbBygxRby5PD8kks8j-124" edge="1">
          <mxGeometry relative="1" as="geometry">
            <mxPoint x="630" y="280" as="sourcePoint" />
            <mxPoint x="790" y="280" as="targetPoint" />
          </mxGeometry>
        </mxCell>
        <mxCell id="QkZbBygxRby5PD8kks8j-156" value="" style="endArrow=none;html=1;rounded=0;entryX=0;entryY=0.5;entryDx=0;entryDy=0;exitX=1;exitY=0.5;exitDx=0;exitDy=0;" parent="1" source="QkZbBygxRby5PD8kks8j-124" target="QkZbBygxRby5PD8kks8j-127" edge="1">
          <mxGeometry relative="1" as="geometry">
            <mxPoint x="630" y="280" as="sourcePoint" />
            <mxPoint x="790" y="280" as="targetPoint" />
          </mxGeometry>
        </mxCell>
        <mxCell id="QkZbBygxRby5PD8kks8j-157" value="" style="endArrow=none;html=1;rounded=0;entryX=1;entryY=1;entryDx=0;entryDy=0;exitX=0;exitY=0;exitDx=0;exitDy=0;" parent="1" source="QkZbBygxRby5PD8kks8j-133" target="QkZbBygxRby5PD8kks8j-124" edge="1">
          <mxGeometry relative="1" as="geometry">
            <mxPoint x="630" y="280" as="sourcePoint" />
            <mxPoint x="790" y="280" as="targetPoint" />
          </mxGeometry>
        </mxCell>
        <mxCell id="QkZbBygxRby5PD8kks8j-158" value="" style="endArrow=none;html=1;rounded=0;entryX=0.75;entryY=1;entryDx=0;entryDy=0;exitX=0;exitY=0;exitDx=0;exitDy=0;" parent="1" source="QkZbBygxRby5PD8kks8j-132" target="QkZbBygxRby5PD8kks8j-124" edge="1">
          <mxGeometry relative="1" as="geometry">
            <mxPoint x="630" y="280" as="sourcePoint" />
            <mxPoint x="790" y="280" as="targetPoint" />
          </mxGeometry>
        </mxCell>
        <mxCell id="QkZbBygxRby5PD8kks8j-159" value="" style="endArrow=none;html=1;rounded=0;entryX=0.5;entryY=1;entryDx=0;entryDy=0;exitX=0.5;exitY=0;exitDx=0;exitDy=0;" parent="1" source="QkZbBygxRby5PD8kks8j-131" target="QkZbBygxRby5PD8kks8j-124" edge="1">
          <mxGeometry relative="1" as="geometry">
            <mxPoint x="630" y="280" as="sourcePoint" />
            <mxPoint x="790" y="280" as="targetPoint" />
          </mxGeometry>
        </mxCell>
        <mxCell id="QkZbBygxRby5PD8kks8j-160" value="" style="endArrow=none;html=1;rounded=0;entryX=0.4;entryY=0.98;entryDx=0;entryDy=0;exitX=0.5;exitY=0;exitDx=0;exitDy=0;entryPerimeter=0;" parent="1" source="QkZbBygxRby5PD8kks8j-129" target="QkZbBygxRby5PD8kks8j-124" edge="1">
          <mxGeometry relative="1" as="geometry">
            <mxPoint x="640" y="280" as="sourcePoint" />
            <mxPoint x="800" y="280" as="targetPoint" />
            <Array as="points" />
          </mxGeometry>
        </mxCell>
        <mxCell id="QkZbBygxRby5PD8kks8j-161" value="" style="endArrow=none;html=1;rounded=0;entryX=0.158;entryY=1.028;entryDx=0;entryDy=0;exitX=0.688;exitY=0.062;exitDx=0;exitDy=0;entryPerimeter=0;exitPerimeter=0;" parent="1" source="QkZbBygxRby5PD8kks8j-134" target="QkZbBygxRby5PD8kks8j-124" edge="1">
          <mxGeometry relative="1" as="geometry">
            <mxPoint x="630" y="280" as="sourcePoint" />
            <mxPoint x="790" y="280" as="targetPoint" />
          </mxGeometry>
        </mxCell>
        <mxCell id="QkZbBygxRby5PD8kks8j-162" value="" style="endArrow=none;html=1;rounded=0;entryX=0;entryY=0.75;entryDx=0;entryDy=0;exitX=1;exitY=0.5;exitDx=0;exitDy=0;" parent="1" source="QkZbBygxRby5PD8kks8j-135" target="QkZbBygxRby5PD8kks8j-124" edge="1">
          <mxGeometry relative="1" as="geometry">
            <mxPoint x="630" y="280" as="sourcePoint" />
            <mxPoint x="790" y="280" as="targetPoint" />
          </mxGeometry>
        </mxCell>
        <mxCell id="QkZbBygxRby5PD8kks8j-163" value="" style="endArrow=none;html=1;rounded=0;entryX=0;entryY=0.5;entryDx=0;entryDy=0;exitX=1;exitY=0.25;exitDx=0;exitDy=0;" parent="1" source="QkZbBygxRby5PD8kks8j-124" target="QkZbBygxRby5PD8kks8j-137" edge="1">
          <mxGeometry relative="1" as="geometry">
            <mxPoint x="630" y="280" as="sourcePoint" />
            <mxPoint x="790" y="280" as="targetPoint" />
          </mxGeometry>
        </mxCell>
        <mxCell id="QkZbBygxRby5PD8kks8j-164" value="تاریخ تایید نهایی" style="ellipse;whiteSpace=wrap;html=1;align=center;" parent="1" vertex="1">
          <mxGeometry x="750" y="70" width="100" height="40" as="geometry" />
        </mxCell>
        <mxCell id="QkZbBygxRby5PD8kks8j-165" value="تاریخ تایید گواهینامه" style="ellipse;whiteSpace=wrap;html=1;align=center;" parent="1" vertex="1">
          <mxGeometry x="680" y="20" width="100" height="40" as="geometry" />
        </mxCell>
        <mxCell id="QkZbBygxRby5PD8kks8j-166" value="نامه قضایی" style="ellipse;whiteSpace=wrap;html=1;align=center;" parent="1" vertex="1">
          <mxGeometry x="670" y="300" width="100" height="40" as="geometry" />
        </mxCell>
        <mxCell id="QkZbBygxRby5PD8kks8j-167" value="تاریخ تایید نامه قضایی" style="ellipse;whiteSpace=wrap;html=1;align=center;" parent="1" vertex="1">
          <mxGeometry x="740" y="336" width="100" height="40" as="geometry" />
        </mxCell>
        <mxCell id="QkZbBygxRby5PD8kks8j-169" value="" style="endArrow=none;html=1;rounded=0;entryX=0.5;entryY=1;entryDx=0;entryDy=0;exitX=0;exitY=0;exitDx=0;exitDy=0;" parent="1" source="QkZbBygxRby5PD8kks8j-119" target="QkZbBygxRby5PD8kks8j-165" edge="1">
          <mxGeometry relative="1" as="geometry">
            <mxPoint x="400" y="280" as="sourcePoint" />
            <mxPoint x="560" y="280" as="targetPoint" />
          </mxGeometry>
        </mxCell>
        <mxCell id="QkZbBygxRby5PD8kks8j-172" value="مشتری" style="rounded=1;arcSize=10;whiteSpace=wrap;html=1;align=center;" parent="1" vertex="1">
          <mxGeometry x="-290" y="240" width="100" height="40" as="geometry" />
        </mxCell>
        <mxCell id="QkZbBygxRby5PD8kks8j-173" value="شناسه" style="ellipse;whiteSpace=wrap;html=1;align=center;fontStyle=4;" parent="1" vertex="1">
          <mxGeometry x="-250" y="135" width="100" height="40" as="geometry" />
        </mxCell>
        <mxCell id="QkZbBygxRby5PD8kks8j-174" value="آدرس" style="ellipse;shape=doubleEllipse;margin=3;whiteSpace=wrap;html=1;align=center;" parent="1" vertex="1">
          <mxGeometry x="-360" y="135" width="100" height="40" as="geometry" />
        </mxCell>
        <mxCell id="QkZbBygxRby5PD8kks8j-175" value="نام آدرس" style="ellipse;whiteSpace=wrap;html=1;align=center;" parent="1" vertex="1">
          <mxGeometry x="-425" y="60" width="100" height="40" as="geometry" />
        </mxCell>
        <mxCell id="QkZbBygxRby5PD8kks8j-176" value="مشخصات" style="ellipse;whiteSpace=wrap;html=1;align=center;" parent="1" vertex="1">
          <mxGeometry x="-300" y="60" width="100" height="40" as="geometry" />
        </mxCell>
        <mxCell id="QkZbBygxRby5PD8kks8j-177" value="موجودی" style="ellipse;whiteSpace=wrap;html=1;align=center;" parent="1" vertex="1">
          <mxGeometry x="-360" y="376" width="100" height="40" as="geometry" />
        </mxCell>
        <mxCell id="QkZbBygxRby5PD8kks8j-178" value="تلفن همراه" style="ellipse;whiteSpace=wrap;html=1;align=center;" parent="1" vertex="1">
          <mxGeometry x="-460" y="365" width="100" height="40" as="geometry" />
        </mxCell>
        <mxCell id="QkZbBygxRby5PD8kks8j-179" value="ایمیل" style="ellipse;whiteSpace=wrap;html=1;align=center;" parent="1" vertex="1">
          <mxGeometry x="-475" y="310" width="100" height="40" as="geometry" />
        </mxCell>
        <mxCell id="QkZbBygxRby5PD8kks8j-180" value="جنسیت" style="ellipse;whiteSpace=wrap;html=1;align=center;" parent="1" vertex="1">
          <mxGeometry x="-475" y="250" width="100" height="40" as="geometry" />
        </mxCell>
        <mxCell id="QkZbBygxRby5PD8kks8j-181" value="نام خانوادگی" style="ellipse;whiteSpace=wrap;html=1;align=center;" parent="1" vertex="1">
          <mxGeometry x="-475" y="190" width="100" height="40" as="geometry" />
        </mxCell>
        <mxCell id="QkZbBygxRby5PD8kks8j-182" value="نام" style="ellipse;whiteSpace=wrap;html=1;align=center;" parent="1" vertex="1">
          <mxGeometry x="-475" y="130" width="100" height="40" as="geometry" />
        </mxCell>
        <mxCell id="QkZbBygxRby5PD8kks8j-183" value="" style="endArrow=none;html=1;rounded=0;entryX=0.5;entryY=1;entryDx=0;entryDy=0;exitX=0;exitY=0;exitDx=0;exitDy=0;" parent="1" source="QkZbBygxRby5PD8kks8j-174" target="QkZbBygxRby5PD8kks8j-175" edge="1">
          <mxGeometry relative="1" as="geometry">
            <mxPoint y="310" as="sourcePoint" />
            <mxPoint x="160" y="310" as="targetPoint" />
          </mxGeometry>
        </mxCell>
        <mxCell id="QkZbBygxRby5PD8kks8j-184" value="" style="endArrow=none;html=1;rounded=0;exitX=1;exitY=0;exitDx=0;exitDy=0;entryX=0.5;entryY=1;entryDx=0;entryDy=0;" parent="1" source="QkZbBygxRby5PD8kks8j-174" target="QkZbBygxRby5PD8kks8j-176" edge="1">
          <mxGeometry relative="1" as="geometry">
            <mxPoint y="310" as="sourcePoint" />
            <mxPoint x="160" y="310" as="targetPoint" />
          </mxGeometry>
        </mxCell>
        <mxCell id="QkZbBygxRby5PD8kks8j-185" value="" style="endArrow=none;html=1;rounded=0;exitX=0;exitY=0;exitDx=0;exitDy=0;entryX=0.5;entryY=1;entryDx=0;entryDy=0;" parent="1" source="QkZbBygxRby5PD8kks8j-172" target="QkZbBygxRby5PD8kks8j-174" edge="1">
          <mxGeometry relative="1" as="geometry">
            <mxPoint y="310" as="sourcePoint" />
            <mxPoint x="160" y="310" as="targetPoint" />
          </mxGeometry>
        </mxCell>
        <mxCell id="QkZbBygxRby5PD8kks8j-186" value="" style="endArrow=none;html=1;rounded=0;exitX=0.5;exitY=0;exitDx=0;exitDy=0;entryX=0.5;entryY=1;entryDx=0;entryDy=0;" parent="1" source="QkZbBygxRby5PD8kks8j-172" target="QkZbBygxRby5PD8kks8j-173" edge="1">
          <mxGeometry relative="1" as="geometry">
            <mxPoint y="310" as="sourcePoint" />
            <mxPoint x="160" y="310" as="targetPoint" />
          </mxGeometry>
        </mxCell>
        <mxCell id="QkZbBygxRby5PD8kks8j-187" value="" style="endArrow=none;html=1;rounded=0;exitX=1;exitY=1;exitDx=0;exitDy=0;entryX=0;entryY=0.25;entryDx=0;entryDy=0;" parent="1" source="QkZbBygxRby5PD8kks8j-182" target="QkZbBygxRby5PD8kks8j-172" edge="1">
          <mxGeometry relative="1" as="geometry">
            <mxPoint x="-10" y="310" as="sourcePoint" />
            <mxPoint x="-300" y="230" as="targetPoint" />
          </mxGeometry>
        </mxCell>
        <mxCell id="QkZbBygxRby5PD8kks8j-188" value="" style="endArrow=none;html=1;rounded=0;entryX=0;entryY=0.5;entryDx=0;entryDy=0;exitX=1;exitY=1;exitDx=0;exitDy=0;" parent="1" source="QkZbBygxRby5PD8kks8j-181" target="QkZbBygxRby5PD8kks8j-172" edge="1">
          <mxGeometry relative="1" as="geometry">
            <mxPoint y="310" as="sourcePoint" />
            <mxPoint x="160" y="310" as="targetPoint" />
          </mxGeometry>
        </mxCell>
        <mxCell id="QkZbBygxRby5PD8kks8j-189" value="" style="endArrow=none;html=1;rounded=0;exitX=1;exitY=0.5;exitDx=0;exitDy=0;entryX=0;entryY=0.75;entryDx=0;entryDy=0;" parent="1" source="QkZbBygxRby5PD8kks8j-180" target="QkZbBygxRby5PD8kks8j-172" edge="1">
          <mxGeometry relative="1" as="geometry">
            <mxPoint y="310" as="sourcePoint" />
            <mxPoint x="160" y="310" as="targetPoint" />
          </mxGeometry>
        </mxCell>
        <mxCell id="QkZbBygxRby5PD8kks8j-190" value="" style="endArrow=none;html=1;rounded=0;exitX=1;exitY=0.5;exitDx=0;exitDy=0;entryX=0;entryY=1;entryDx=0;entryDy=0;" parent="1" source="QkZbBygxRby5PD8kks8j-179" target="QkZbBygxRby5PD8kks8j-172" edge="1">
          <mxGeometry relative="1" as="geometry">
            <mxPoint y="310" as="sourcePoint" />
            <mxPoint x="160" y="310" as="targetPoint" />
          </mxGeometry>
        </mxCell>
        <mxCell id="QkZbBygxRby5PD8kks8j-191" value="" style="endArrow=none;html=1;rounded=0;exitX=1;exitY=0;exitDx=0;exitDy=0;entryX=0.15;entryY=1;entryDx=0;entryDy=0;entryPerimeter=0;" parent="1" source="QkZbBygxRby5PD8kks8j-178" target="QkZbBygxRby5PD8kks8j-172" edge="1">
          <mxGeometry relative="1" as="geometry">
            <mxPoint y="310" as="sourcePoint" />
            <mxPoint x="160" y="310" as="targetPoint" />
          </mxGeometry>
        </mxCell>
        <mxCell id="QkZbBygxRby5PD8kks8j-210" value="تراکنش" style="rounded=1;arcSize=10;whiteSpace=wrap;html=1;align=center;" parent="1" vertex="1">
          <mxGeometry x="-50" y="350" width="100" height="40" as="geometry" />
        </mxCell>
        <mxCell id="QkZbBygxRby5PD8kks8j-211" value="کد رهگیری" style="ellipse;whiteSpace=wrap;html=1;align=center;fontStyle=4;" parent="1" vertex="1">
          <mxGeometry x="-100" y="250" width="100" height="40" as="geometry" />
        </mxCell>
        <mxCell id="QkZbBygxRby5PD8kks8j-212" value="کارت مبدا" style="ellipse;whiteSpace=wrap;html=1;align=center;" parent="1" vertex="1">
          <mxGeometry x="-135" y="302" width="100" height="40" as="geometry" />
        </mxCell>
        <mxCell id="QkZbBygxRby5PD8kks8j-213" value="کارت مقصد" style="ellipse;whiteSpace=wrap;html=1;align=center;" parent="1" vertex="1">
          <mxGeometry x="40" y="300" width="100" height="40" as="geometry" />
        </mxCell>
        <mxCell id="QkZbBygxRby5PD8kks8j-214" value="وضعیت" style="ellipse;whiteSpace=wrap;html=1;align=center;" parent="1" vertex="1">
          <mxGeometry x="-120" y="412" width="100" height="40" as="geometry" />
        </mxCell>
        <mxCell id="QkZbBygxRby5PD8kks8j-215" value="نوع" style="ellipse;whiteSpace=wrap;html=1;align=center;" parent="1" vertex="1">
          <mxGeometry x="-50" y="460" width="100" height="40" as="geometry" />
        </mxCell>
        <mxCell id="QkZbBygxRby5PD8kks8j-216" value="زمان" style="ellipse;whiteSpace=wrap;html=1;align=center;" parent="1" vertex="1">
          <mxGeometry x="20" y="412" width="100" height="40" as="geometry" />
        </mxCell>
        <mxCell id="QkZbBygxRby5PD8kks8j-217" style="edgeStyle=orthogonalEdgeStyle;rounded=0;orthogonalLoop=1;jettySize=auto;html=1;exitX=0.5;exitY=1;exitDx=0;exitDy=0;" parent="1" source="QkZbBygxRby5PD8kks8j-211" target="QkZbBygxRby5PD8kks8j-211" edge="1">
          <mxGeometry relative="1" as="geometry" />
        </mxCell>
        <mxCell id="QkZbBygxRby5PD8kks8j-218" value="" style="endArrow=none;html=1;rounded=0;exitX=0.75;exitY=1;exitDx=0;exitDy=0;entryX=0.5;entryY=0;entryDx=0;entryDy=0;" parent="1" source="QkZbBygxRby5PD8kks8j-210" target="QkZbBygxRby5PD8kks8j-216" edge="1">
          <mxGeometry relative="1" as="geometry">
            <mxPoint x="-160" y="370" as="sourcePoint" />
            <mxPoint y="370" as="targetPoint" />
          </mxGeometry>
        </mxCell>
        <mxCell id="QkZbBygxRby5PD8kks8j-219" value="" style="endArrow=none;html=1;rounded=0;exitX=0.5;exitY=0;exitDx=0;exitDy=0;entryX=0.5;entryY=1;entryDx=0;entryDy=0;" parent="1" source="QkZbBygxRby5PD8kks8j-215" target="QkZbBygxRby5PD8kks8j-210" edge="1">
          <mxGeometry relative="1" as="geometry">
            <mxPoint x="-160" y="370" as="sourcePoint" />
            <mxPoint y="410" as="targetPoint" />
          </mxGeometry>
        </mxCell>
        <mxCell id="QkZbBygxRby5PD8kks8j-220" value="" style="endArrow=none;html=1;rounded=0;exitX=0.5;exitY=0;exitDx=0;exitDy=0;entryX=0.25;entryY=1;entryDx=0;entryDy=0;" parent="1" source="QkZbBygxRby5PD8kks8j-214" target="QkZbBygxRby5PD8kks8j-210" edge="1">
          <mxGeometry relative="1" as="geometry">
            <mxPoint x="-160" y="370" as="sourcePoint" />
            <mxPoint y="370" as="targetPoint" />
          </mxGeometry>
        </mxCell>
        <mxCell id="QkZbBygxRby5PD8kks8j-221" value="" style="endArrow=none;html=1;rounded=0;exitX=0.5;exitY=1;exitDx=0;exitDy=0;entryX=0.75;entryY=0;entryDx=0;entryDy=0;" parent="1" source="QkZbBygxRby5PD8kks8j-213" target="QkZbBygxRby5PD8kks8j-210" edge="1">
          <mxGeometry relative="1" as="geometry">
            <mxPoint x="-160" y="370" as="sourcePoint" />
            <mxPoint y="370" as="targetPoint" />
          </mxGeometry>
        </mxCell>
        <mxCell id="QkZbBygxRby5PD8kks8j-222" value="" style="endArrow=none;html=1;rounded=0;exitX=0.5;exitY=1;exitDx=0;exitDy=0;entryX=0.25;entryY=0;entryDx=0;entryDy=0;" parent="1" source="QkZbBygxRby5PD8kks8j-212" target="QkZbBygxRby5PD8kks8j-210" edge="1">
          <mxGeometry relative="1" as="geometry">
            <mxPoint x="-160" y="370" as="sourcePoint" />
            <mxPoint y="370" as="targetPoint" />
          </mxGeometry>
        </mxCell>
        <mxCell id="QkZbBygxRby5PD8kks8j-223" value="" style="endArrow=none;html=1;rounded=0;entryX=0.5;entryY=1;entryDx=0;entryDy=0;exitX=0.5;exitY=0;exitDx=0;exitDy=0;" parent="1" source="QkZbBygxRby5PD8kks8j-210" target="QkZbBygxRby5PD8kks8j-211" edge="1">
          <mxGeometry relative="1" as="geometry">
            <mxPoint x="-160" y="370" as="sourcePoint" />
            <mxPoint y="370" as="targetPoint" />
          </mxGeometry>
        </mxCell>
        <mxCell id="QkZbBygxRby5PD8kks8j-225" value="برداشت کردن" style="shape=rhombus;perimeter=rhombusPerimeter;whiteSpace=wrap;html=1;align=center;" parent="1" vertex="1">
          <mxGeometry x="130" y="340" width="120" height="60" as="geometry" />
        </mxCell>
        <mxCell id="QkZbBygxRby5PD8kks8j-226" value="واریز کردن" style="shape=rhombus;perimeter=rhombusPerimeter;whiteSpace=wrap;html=1;align=center;" parent="1" vertex="1">
          <mxGeometry x="-240" y="340" width="120" height="60" as="geometry" />
        </mxCell>
        <mxCell id="QkZbBygxRby5PD8kks8j-228" value="" style="endArrow=none;html=1;rounded=0;exitX=0.5;exitY=1;exitDx=0;exitDy=0;entryX=0.5;entryY=0;entryDx=0;entryDy=0;" parent="1" source="QkZbBygxRby5PD8kks8j-172" target="QkZbBygxRby5PD8kks8j-226" edge="1">
          <mxGeometry relative="1" as="geometry">
            <mxPoint x="-160" y="370" as="sourcePoint" />
            <mxPoint y="370" as="targetPoint" />
            <Array as="points">
              <mxPoint x="-200" y="320" />
            </Array>
          </mxGeometry>
        </mxCell>
        <mxCell id="QkZbBygxRby5PD8kks8j-230" value="" style="endArrow=none;html=1;rounded=0;exitX=1;exitY=0.5;exitDx=0;exitDy=0;entryX=0.38;entryY=1;entryDx=0;entryDy=0;entryPerimeter=0;" parent="1" source="QkZbBygxRby5PD8kks8j-225" target="swCDHV_uJjEk_oPD2tug-1" edge="1">
          <mxGeometry relative="1" as="geometry">
            <mxPoint x="-160" y="370" as="sourcePoint" />
            <mxPoint x="380" y="360" as="targetPoint" />
            <Array as="points">
              <mxPoint x="428" y="370" />
            </Array>
          </mxGeometry>
        </mxCell>
        <mxCell id="QkZbBygxRby5PD8kks8j-231" value="" style="endArrow=none;html=1;rounded=0;exitX=1;exitY=0.5;exitDx=0;exitDy=0;entryX=0;entryY=0.5;entryDx=0;entryDy=0;" parent="1" source="QkZbBygxRby5PD8kks8j-210" target="QkZbBygxRby5PD8kks8j-225" edge="1">
          <mxGeometry relative="1" as="geometry">
            <mxPoint x="-160" y="370" as="sourcePoint" />
            <mxPoint y="370" as="targetPoint" />
          </mxGeometry>
        </mxCell>
        <mxCell id="QkZbBygxRby5PD8kks8j-232" value="" style="endArrow=none;html=1;rounded=0;exitX=1;exitY=0.5;exitDx=0;exitDy=0;entryX=0;entryY=0.5;entryDx=0;entryDy=0;" parent="1" source="QkZbBygxRby5PD8kks8j-226" target="QkZbBygxRby5PD8kks8j-210" edge="1">
          <mxGeometry relative="1" as="geometry">
            <mxPoint x="-160" y="370" as="sourcePoint" />
            <mxPoint y="370" as="targetPoint" />
          </mxGeometry>
        </mxCell>
        <mxCell id="QkZbBygxRby5PD8kks8j-233" value="(0,n)" style="text;html=1;align=center;verticalAlign=middle;resizable=0;points=[];autosize=1;strokeColor=none;fillColor=none;" parent="1" vertex="1">
          <mxGeometry x="-225" y="320" width="50" height="30" as="geometry" />
        </mxCell>
        <mxCell id="QkZbBygxRby5PD8kks8j-234" value="(0,1)" style="text;html=1;align=center;verticalAlign=middle;resizable=0;points=[];autosize=1;strokeColor=none;fillColor=none;" parent="1" vertex="1">
          <mxGeometry x="-135" y="346" width="50" height="30" as="geometry" />
        </mxCell>
        <mxCell id="QkZbBygxRby5PD8kks8j-235" value="(0,n)" style="text;html=1;align=center;verticalAlign=middle;resizable=0;points=[];autosize=1;strokeColor=none;fillColor=none;" parent="1" vertex="1">
          <mxGeometry x="236" y="370" width="50" height="30" as="geometry" />
        </mxCell>
        <mxCell id="QkZbBygxRby5PD8kks8j-236" value="(0,1)" style="text;html=1;align=center;verticalAlign=middle;resizable=0;points=[];autosize=1;strokeColor=none;fillColor=none;" parent="1" vertex="1">
          <mxGeometry x="90" y="370" width="50" height="30" as="geometry" />
        </mxCell>
        <mxCell id="QkZbBygxRby5PD8kks8j-237" value="روزانه/لحظه ای" style="ellipse;whiteSpace=wrap;html=1;align=center;" parent="1" vertex="1">
          <mxGeometry x="140" y="411" width="100" height="40" as="geometry" />
        </mxCell>
        <mxCell id="QkZbBygxRby5PD8kks8j-238" value="" style="endArrow=none;html=1;rounded=0;exitX=0.5;exitY=0;exitDx=0;exitDy=0;entryX=0.5;entryY=1;entryDx=0;entryDy=0;" parent="1" source="QkZbBygxRby5PD8kks8j-237" target="QkZbBygxRby5PD8kks8j-225" edge="1">
          <mxGeometry relative="1" as="geometry">
            <mxPoint x="-160" y="370" as="sourcePoint" />
            <mxPoint y="370" as="targetPoint" />
          </mxGeometry>
        </mxCell>
        <mxCell id="QkZbBygxRby5PD8kks8j-239" value="درخواست سفر" style="shape=ext;margin=3;double=1;whiteSpace=wrap;html=1;align=center;" parent="1" vertex="1">
          <mxGeometry x="-435" y="580" width="100" height="40" as="geometry" />
        </mxCell>
        <mxCell id="QkZbBygxRby5PD8kks8j-240" value="درخواست دادن" style="shape=rhombus;double=1;perimeter=rhombusPerimeter;whiteSpace=wrap;html=1;align=center;" parent="1" vertex="1">
          <mxGeometry x="-440" y="452" width="110" height="58" as="geometry" />
        </mxCell>
        <mxCell id="QkZbBygxRby5PD8kks8j-241" value="" style="shape=link;html=1;rounded=0;entryX=0.5;entryY=0;entryDx=0;entryDy=0;exitX=0.5;exitY=1;exitDx=0;exitDy=0;" parent="1" source="QkZbBygxRby5PD8kks8j-240" target="QkZbBygxRby5PD8kks8j-239" edge="1">
          <mxGeometry relative="1" as="geometry">
            <mxPoint x="-250" y="650" as="sourcePoint" />
            <mxPoint x="-90" y="650" as="targetPoint" />
          </mxGeometry>
        </mxCell>
        <mxCell id="QkZbBygxRby5PD8kks8j-242" value="" style="resizable=0;html=1;whiteSpace=wrap;align=right;verticalAlign=bottom;" parent="QkZbBygxRby5PD8kks8j-241" connectable="0" vertex="1">
          <mxGeometry x="1" relative="1" as="geometry" />
        </mxCell>
        <mxCell id="QkZbBygxRby5PD8kks8j-243" value="" style="endArrow=none;html=1;rounded=0;entryX=0.36;entryY=1;entryDx=0;entryDy=0;entryPerimeter=0;exitX=1;exitY=0.5;exitDx=0;exitDy=0;" parent="1" source="QkZbBygxRby5PD8kks8j-240" target="QkZbBygxRby5PD8kks8j-172" edge="1">
          <mxGeometry relative="1" as="geometry">
            <mxPoint x="-250" y="650" as="sourcePoint" />
            <mxPoint x="-90" y="650" as="targetPoint" />
            <Array as="points">
              <mxPoint x="-250" y="480" />
            </Array>
          </mxGeometry>
        </mxCell>
        <mxCell id="QkZbBygxRby5PD8kks8j-245" value="(0,n)" style="text;html=1;align=center;verticalAlign=middle;resizable=0;points=[];autosize=1;strokeColor=none;fillColor=none;" parent="1" vertex="1">
          <mxGeometry x="-250" y="430" width="50" height="30" as="geometry" />
        </mxCell>
        <mxCell id="QkZbBygxRby5PD8kks8j-246" value="(1,1)" style="text;html=1;align=center;verticalAlign=middle;resizable=0;points=[];autosize=1;strokeColor=none;fillColor=none;" parent="1" vertex="1">
          <mxGeometry x="-385" y="550" width="50" height="30" as="geometry" />
        </mxCell>
        <mxCell id="QkZbBygxRby5PD8kks8j-251" value="&lt;span style=&quot;border-bottom: 1px dotted&quot;&gt;زمان درخواست&lt;br&gt;&lt;/span&gt;" style="ellipse;whiteSpace=wrap;html=1;align=center;" parent="1" vertex="1">
          <mxGeometry x="-575" y="540" width="100" height="40" as="geometry" />
        </mxCell>
        <mxCell id="QkZbBygxRby5PD8kks8j-252" value="مبدا" style="ellipse;whiteSpace=wrap;html=1;align=center;" parent="1" vertex="1">
          <mxGeometry x="-575" y="591" width="100" height="40" as="geometry" />
        </mxCell>
        <mxCell id="QkZbBygxRby5PD8kks8j-256" value="انتظار" style="ellipse;whiteSpace=wrap;html=1;align=center;" parent="1" vertex="1">
          <mxGeometry x="-300" y="600" width="100" height="40" as="geometry" />
        </mxCell>
        <mxCell id="QkZbBygxRby5PD8kks8j-257" value="" style="endArrow=none;html=1;rounded=0;entryX=0;entryY=0.5;entryDx=0;entryDy=0;" parent="1" source="QkZbBygxRby5PD8kks8j-239" target="umlDn6B3DRz233x1YHds-8" edge="1">
          <mxGeometry relative="1" as="geometry">
            <mxPoint x="-250" y="590" as="sourcePoint" />
            <mxPoint x="-300" y="540" as="targetPoint" />
          </mxGeometry>
        </mxCell>
        <mxCell id="QkZbBygxRby5PD8kks8j-258" value="" style="endArrow=none;html=1;rounded=0;exitX=0;exitY=0.5;exitDx=0;exitDy=0;entryX=1;entryY=0.5;entryDx=0;entryDy=0;" parent="1" source="QkZbBygxRby5PD8kks8j-256" target="QkZbBygxRby5PD8kks8j-239" edge="1">
          <mxGeometry relative="1" as="geometry">
            <mxPoint x="-320" y="600" as="sourcePoint" />
            <mxPoint x="-320" y="640" as="targetPoint" />
          </mxGeometry>
        </mxCell>
        <mxCell id="QkZbBygxRby5PD8kks8j-259" value="" style="endArrow=none;html=1;rounded=0;exitX=1;exitY=0.5;exitDx=0;exitDy=0;entryX=0;entryY=0.5;entryDx=0;entryDy=0;" parent="1" source="QkZbBygxRby5PD8kks8j-252" target="QkZbBygxRby5PD8kks8j-239" edge="1">
          <mxGeometry relative="1" as="geometry">
            <mxPoint x="-250" y="590" as="sourcePoint" />
            <mxPoint x="-460" y="630" as="targetPoint" />
          </mxGeometry>
        </mxCell>
        <mxCell id="QkZbBygxRby5PD8kks8j-260" value="" style="endArrow=none;html=1;rounded=0;exitX=1;exitY=0.5;exitDx=0;exitDy=0;entryX=0;entryY=0.25;entryDx=0;entryDy=0;" parent="1" source="QkZbBygxRby5PD8kks8j-251" target="QkZbBygxRby5PD8kks8j-239" edge="1">
          <mxGeometry relative="1" as="geometry">
            <mxPoint x="-250" y="590" as="sourcePoint" />
            <mxPoint x="-90" y="590" as="targetPoint" />
          </mxGeometry>
        </mxCell>
        <mxCell id="QkZbBygxRby5PD8kks8j-264" value="U" style="ellipse;whiteSpace=wrap;html=1;aspect=fixed;" parent="1" vertex="1">
          <mxGeometry x="-405" y="660" width="40" height="40" as="geometry" />
        </mxCell>
        <mxCell id="QkZbBygxRby5PD8kks8j-265" value="" style="shape=link;html=1;rounded=0;entryX=0.5;entryY=1;entryDx=0;entryDy=0;" parent="1" target="QkZbBygxRby5PD8kks8j-239" edge="1">
          <mxGeometry relative="1" as="geometry">
            <mxPoint x="-385" y="660" as="sourcePoint" />
            <mxPoint x="-90" y="820" as="targetPoint" />
          </mxGeometry>
        </mxCell>
        <mxCell id="QkZbBygxRby5PD8kks8j-267" value="" style="verticalLabelPosition=bottom;verticalAlign=top;html=1;shape=mxgraph.basic.arc;startAngle=0.7563628056739959;endAngle=0.2451785983640878;" parent="1" vertex="1">
          <mxGeometry x="-403" y="631" width="35" height="40" as="geometry" />
        </mxCell>
        <mxCell id="QkZbBygxRby5PD8kks8j-269" value="مسافرکشی" style="rounded=1;arcSize=10;whiteSpace=wrap;html=1;align=center;" parent="1" vertex="1">
          <mxGeometry x="-280" y="760" width="100" height="40" as="geometry" />
        </mxCell>
        <mxCell id="QkZbBygxRby5PD8kks8j-270" value="حمل و نقل سنگین" style="rounded=1;arcSize=10;whiteSpace=wrap;html=1;align=center;" parent="1" vertex="1">
          <mxGeometry x="-435" y="780" width="100" height="40" as="geometry" />
        </mxCell>
        <mxCell id="QkZbBygxRby5PD8kks8j-271" value="حمل و نقل سبک" style="rounded=1;arcSize=10;whiteSpace=wrap;html=1;align=center;" parent="1" vertex="1">
          <mxGeometry x="-610" y="760" width="100" height="40" as="geometry" />
        </mxCell>
        <mxCell id="QkZbBygxRby5PD8kks8j-273" value="" style="endArrow=none;html=1;rounded=0;exitX=0.5;exitY=0;exitDx=0;exitDy=0;entryX=0;entryY=1;entryDx=0;entryDy=0;" parent="1" source="QkZbBygxRby5PD8kks8j-271" target="QkZbBygxRby5PD8kks8j-264" edge="1">
          <mxGeometry relative="1" as="geometry">
            <mxPoint x="-250" y="820" as="sourcePoint" />
            <mxPoint x="-90" y="820" as="targetPoint" />
          </mxGeometry>
        </mxCell>
        <mxCell id="QkZbBygxRby5PD8kks8j-274" value="" style="endArrow=none;html=1;rounded=0;exitX=1;exitY=1;exitDx=0;exitDy=0;entryX=0.5;entryY=0;entryDx=0;entryDy=0;" parent="1" source="QkZbBygxRby5PD8kks8j-264" target="QkZbBygxRby5PD8kks8j-269" edge="1">
          <mxGeometry relative="1" as="geometry">
            <mxPoint x="-250" y="820" as="sourcePoint" />
            <mxPoint x="-90" y="820" as="targetPoint" />
          </mxGeometry>
        </mxCell>
        <mxCell id="QkZbBygxRby5PD8kks8j-275" value="" style="endArrow=none;html=1;rounded=0;exitX=0.5;exitY=1;exitDx=0;exitDy=0;" parent="1" source="QkZbBygxRby5PD8kks8j-264" target="QkZbBygxRby5PD8kks8j-270" edge="1">
          <mxGeometry relative="1" as="geometry">
            <mxPoint x="-250" y="820" as="sourcePoint" />
            <mxPoint x="-90" y="820" as="targetPoint" />
          </mxGeometry>
        </mxCell>
        <mxCell id="QkZbBygxRby5PD8kks8j-276" style="edgeStyle=orthogonalEdgeStyle;rounded=0;orthogonalLoop=1;jettySize=auto;html=1;exitX=0.5;exitY=1;exitDx=0;exitDy=0;" parent="1" source="QkZbBygxRby5PD8kks8j-269" target="QkZbBygxRby5PD8kks8j-269" edge="1">
          <mxGeometry relative="1" as="geometry" />
        </mxCell>
        <mxCell id="QkZbBygxRby5PD8kks8j-277" value="مقصد" style="ellipse;shape=doubleEllipse;margin=3;whiteSpace=wrap;html=1;align=center;" parent="1" vertex="1">
          <mxGeometry x="-280" y="860" width="100" height="40" as="geometry" />
        </mxCell>
        <mxCell id="QkZbBygxRby5PD8kks8j-279" value="تایید/عدم تایید" style="ellipse;whiteSpace=wrap;html=1;align=center;" parent="1" vertex="1">
          <mxGeometry x="-575" y="640" width="100" height="40" as="geometry" />
        </mxCell>
        <mxCell id="QkZbBygxRby5PD8kks8j-280" value="" style="endArrow=none;html=1;rounded=0;exitX=1;exitY=0.5;exitDx=0;exitDy=0;entryX=0;entryY=1;entryDx=0;entryDy=0;" parent="1" source="QkZbBygxRby5PD8kks8j-279" target="QkZbBygxRby5PD8kks8j-239" edge="1">
          <mxGeometry relative="1" as="geometry">
            <mxPoint x="-250" y="820" as="sourcePoint" />
            <mxPoint x="-90" y="820" as="targetPoint" />
          </mxGeometry>
        </mxCell>
        <mxCell id="QkZbBygxRby5PD8kks8j-283" value="رفت و برگشتی" style="ellipse;whiteSpace=wrap;html=1;align=center;" parent="1" vertex="1">
          <mxGeometry x="-210" y="820" width="100" height="40" as="geometry" />
        </mxCell>
        <mxCell id="QkZbBygxRby5PD8kks8j-284" value="هزینه" style="ellipse;whiteSpace=wrap;html=1;align=center;" parent="1" vertex="1">
          <mxGeometry x="-350" y="820" width="100" height="40" as="geometry" />
        </mxCell>
        <mxCell id="QkZbBygxRby5PD8kks8j-285" value="" style="endArrow=none;html=1;rounded=0;exitX=0.5;exitY=1;exitDx=0;exitDy=0;entryX=0.5;entryY=0;entryDx=0;entryDy=0;" parent="1" source="QkZbBygxRby5PD8kks8j-269" target="QkZbBygxRby5PD8kks8j-277" edge="1">
          <mxGeometry relative="1" as="geometry">
            <mxPoint x="-250" y="820" as="sourcePoint" />
            <mxPoint x="-90" y="820" as="targetPoint" />
          </mxGeometry>
        </mxCell>
        <mxCell id="QkZbBygxRby5PD8kks8j-286" value="" style="endArrow=none;html=1;rounded=0;exitX=0.75;exitY=1;exitDx=0;exitDy=0;" parent="1" source="QkZbBygxRby5PD8kks8j-269" edge="1">
          <mxGeometry relative="1" as="geometry">
            <mxPoint x="-250" y="820" as="sourcePoint" />
            <mxPoint x="-150" y="820" as="targetPoint" />
          </mxGeometry>
        </mxCell>
        <mxCell id="QkZbBygxRby5PD8kks8j-287" value="" style="endArrow=none;html=1;rounded=0;exitX=0.5;exitY=0;exitDx=0;exitDy=0;entryX=0.25;entryY=1;entryDx=0;entryDy=0;" parent="1" source="QkZbBygxRby5PD8kks8j-284" target="QkZbBygxRby5PD8kks8j-269" edge="1">
          <mxGeometry relative="1" as="geometry">
            <mxPoint x="-250" y="820" as="sourcePoint" />
            <mxPoint x="-90" y="820" as="targetPoint" />
          </mxGeometry>
        </mxCell>
        <mxCell id="QkZbBygxRby5PD8kks8j-288" value="کمک مشتری" style="ellipse;whiteSpace=wrap;html=1;align=center;" parent="1" vertex="1">
          <mxGeometry x="-435" y="850" width="100" height="40" as="geometry" />
        </mxCell>
        <mxCell id="QkZbBygxRby5PD8kks8j-289" value="" style="endArrow=none;html=1;rounded=0;exitX=0.5;exitY=0;exitDx=0;exitDy=0;entryX=0.5;entryY=1;entryDx=0;entryDy=0;" parent="1" source="QkZbBygxRby5PD8kks8j-288" target="QkZbBygxRby5PD8kks8j-270" edge="1">
          <mxGeometry relative="1" as="geometry">
            <mxPoint x="-250" y="820" as="sourcePoint" />
            <mxPoint x="-90" y="820" as="targetPoint" />
          </mxGeometry>
        </mxCell>
        <mxCell id="QkZbBygxRby5PD8kks8j-290" value="نوع کالا" style="ellipse;whiteSpace=wrap;html=1;align=center;" parent="1" vertex="1">
          <mxGeometry x="-740" y="660" width="100" height="40" as="geometry" />
        </mxCell>
        <mxCell id="QkZbBygxRby5PD8kks8j-291" value="وزن کالا" style="ellipse;whiteSpace=wrap;html=1;align=center;" parent="1" vertex="1">
          <mxGeometry x="-850" y="710" width="100" height="40" as="geometry" />
        </mxCell>
        <mxCell id="QkZbBygxRby5PD8kks8j-292" value="ارزش مالی کالا" style="ellipse;whiteSpace=wrap;html=1;align=center;" parent="1" vertex="1">
          <mxGeometry x="-850" y="660" width="100" height="40" as="geometry" />
        </mxCell>
        <mxCell id="QkZbBygxRby5PD8kks8j-293" value="هزینه سرویس" style="ellipse;whiteSpace=wrap;html=1;align=center;" parent="1" vertex="1">
          <mxGeometry x="-740" y="810" width="100" height="40" as="geometry" />
        </mxCell>
        <mxCell id="QkZbBygxRby5PD8kks8j-294" value="هزینه بیمه" style="ellipse;whiteSpace=wrap;html=1;align=center;" parent="1" vertex="1">
          <mxGeometry x="-740" y="760" width="100" height="40" as="geometry" />
        </mxCell>
        <mxCell id="QkZbBygxRby5PD8kks8j-295" value="کالا" style="ellipse;whiteSpace=wrap;html=1;align=center;" parent="1" vertex="1">
          <mxGeometry x="-740" y="710" width="100" height="40" as="geometry" />
        </mxCell>
        <mxCell id="QkZbBygxRby5PD8kks8j-296" value="مبلغ کل" style="ellipse;whiteSpace=wrap;html=1;align=center;dashed=1;" parent="1" vertex="1">
          <mxGeometry x="-610" y="695" width="100" height="40" as="geometry" />
        </mxCell>
        <mxCell id="QkZbBygxRby5PD8kks8j-297" value="" style="endArrow=none;html=1;rounded=0;entryX=0.5;entryY=1;entryDx=0;entryDy=0;exitX=0.5;exitY=0;exitDx=0;exitDy=0;" parent="1" source="QkZbBygxRby5PD8kks8j-295" target="QkZbBygxRby5PD8kks8j-290" edge="1">
          <mxGeometry relative="1" as="geometry">
            <mxPoint x="-250" y="820" as="sourcePoint" />
            <mxPoint x="-90" y="820" as="targetPoint" />
          </mxGeometry>
        </mxCell>
        <mxCell id="QkZbBygxRby5PD8kks8j-298" value="" style="endArrow=none;html=1;rounded=0;entryX=1;entryY=1;entryDx=0;entryDy=0;exitX=0;exitY=0;exitDx=0;exitDy=0;" parent="1" source="QkZbBygxRby5PD8kks8j-295" target="QkZbBygxRby5PD8kks8j-292" edge="1">
          <mxGeometry relative="1" as="geometry">
            <mxPoint x="-250" y="820" as="sourcePoint" />
            <mxPoint x="-90" y="820" as="targetPoint" />
          </mxGeometry>
        </mxCell>
        <mxCell id="QkZbBygxRby5PD8kks8j-299" value="" style="endArrow=none;html=1;rounded=0;entryX=1;entryY=0.5;entryDx=0;entryDy=0;exitX=0;exitY=0.5;exitDx=0;exitDy=0;" parent="1" source="QkZbBygxRby5PD8kks8j-295" target="QkZbBygxRby5PD8kks8j-291" edge="1">
          <mxGeometry relative="1" as="geometry">
            <mxPoint x="-250" y="820" as="sourcePoint" />
            <mxPoint x="-90" y="820" as="targetPoint" />
          </mxGeometry>
        </mxCell>
        <mxCell id="QkZbBygxRby5PD8kks8j-300" value="" style="endArrow=none;html=1;rounded=0;entryX=0;entryY=0.5;entryDx=0;entryDy=0;" parent="1" source="QkZbBygxRby5PD8kks8j-294" target="QkZbBygxRby5PD8kks8j-271" edge="1">
          <mxGeometry relative="1" as="geometry">
            <mxPoint x="-250" y="820" as="sourcePoint" />
            <mxPoint x="-90" y="820" as="targetPoint" />
          </mxGeometry>
        </mxCell>
        <mxCell id="QkZbBygxRby5PD8kks8j-301" value="" style="endArrow=none;html=1;rounded=0;entryX=1;entryY=0.5;entryDx=0;entryDy=0;exitX=0;exitY=1;exitDx=0;exitDy=0;" parent="1" source="QkZbBygxRby5PD8kks8j-271" target="QkZbBygxRby5PD8kks8j-293" edge="1">
          <mxGeometry relative="1" as="geometry">
            <mxPoint x="-250" y="820" as="sourcePoint" />
            <mxPoint x="-90" y="820" as="targetPoint" />
          </mxGeometry>
        </mxCell>
        <mxCell id="QkZbBygxRby5PD8kks8j-302" value="" style="endArrow=none;html=1;rounded=0;entryX=1;entryY=0.5;entryDx=0;entryDy=0;exitX=0;exitY=0;exitDx=0;exitDy=0;" parent="1" source="QkZbBygxRby5PD8kks8j-271" target="QkZbBygxRby5PD8kks8j-295" edge="1">
          <mxGeometry relative="1" as="geometry">
            <mxPoint x="-620" y="760" as="sourcePoint" />
            <mxPoint x="-90" y="820" as="targetPoint" />
          </mxGeometry>
        </mxCell>
        <mxCell id="QkZbBygxRby5PD8kks8j-303" value="" style="endArrow=none;html=1;rounded=0;exitX=0.5;exitY=1;exitDx=0;exitDy=0;entryX=0.5;entryY=0;entryDx=0;entryDy=0;" parent="1" source="QkZbBygxRby5PD8kks8j-296" target="QkZbBygxRby5PD8kks8j-271" edge="1">
          <mxGeometry relative="1" as="geometry">
            <mxPoint x="-250" y="820" as="sourcePoint" />
            <mxPoint x="-90" y="820" as="targetPoint" />
          </mxGeometry>
        </mxCell>
        <mxCell id="QkZbBygxRby5PD8kks8j-304" value="هزینه" style="ellipse;whiteSpace=wrap;html=1;align=center;" parent="1" vertex="1">
          <mxGeometry x="-550" y="810" width="100" height="40" as="geometry" />
        </mxCell>
        <mxCell id="QkZbBygxRby5PD8kks8j-305" value="وزن کالا" style="ellipse;whiteSpace=wrap;html=1;align=center;" parent="1" vertex="1">
          <mxGeometry x="-550" y="950" width="100" height="40" as="geometry" />
        </mxCell>
        <mxCell id="QkZbBygxRby5PD8kks8j-306" value="نوع کالا" style="ellipse;whiteSpace=wrap;html=1;align=center;" parent="1" vertex="1">
          <mxGeometry x="-490" y="900" width="100" height="40" as="geometry" />
        </mxCell>
        <mxCell id="QkZbBygxRby5PD8kks8j-307" value="ارزش کالا" style="ellipse;whiteSpace=wrap;html=1;align=center;" parent="1" vertex="1">
          <mxGeometry x="-620" y="900" width="100" height="40" as="geometry" />
        </mxCell>
        <mxCell id="QkZbBygxRby5PD8kks8j-308" value="کالا" style="ellipse;whiteSpace=wrap;html=1;align=center;" parent="1" vertex="1">
          <mxGeometry x="-550" y="860" width="100" height="40" as="geometry" />
        </mxCell>
        <mxCell id="QkZbBygxRby5PD8kks8j-310" value="" style="endArrow=none;html=1;rounded=0;entryX=0.5;entryY=0;entryDx=0;entryDy=0;exitX=0.5;exitY=1;exitDx=0;exitDy=0;" parent="1" source="QkZbBygxRby5PD8kks8j-308" target="QkZbBygxRby5PD8kks8j-305" edge="1">
          <mxGeometry relative="1" as="geometry">
            <mxPoint x="-250" y="820" as="sourcePoint" />
            <mxPoint x="-90" y="820" as="targetPoint" />
          </mxGeometry>
        </mxCell>
        <mxCell id="QkZbBygxRby5PD8kks8j-311" value="" style="endArrow=none;html=1;rounded=0;entryX=0.5;entryY=0;entryDx=0;entryDy=0;exitX=0;exitY=1;exitDx=0;exitDy=0;" parent="1" source="QkZbBygxRby5PD8kks8j-308" target="QkZbBygxRby5PD8kks8j-307" edge="1">
          <mxGeometry relative="1" as="geometry">
            <mxPoint x="-250" y="820" as="sourcePoint" />
            <mxPoint x="-90" y="820" as="targetPoint" />
          </mxGeometry>
        </mxCell>
        <mxCell id="QkZbBygxRby5PD8kks8j-312" value="" style="endArrow=none;html=1;rounded=0;entryX=0.77;entryY=0.9;entryDx=0;entryDy=0;entryPerimeter=0;exitX=0.5;exitY=0;exitDx=0;exitDy=0;" parent="1" source="QkZbBygxRby5PD8kks8j-306" target="QkZbBygxRby5PD8kks8j-308" edge="1">
          <mxGeometry relative="1" as="geometry">
            <mxPoint x="-250" y="820" as="sourcePoint" />
            <mxPoint x="-90" y="820" as="targetPoint" />
          </mxGeometry>
        </mxCell>
        <mxCell id="QkZbBygxRby5PD8kks8j-313" value="" style="endArrow=none;html=1;rounded=0;entryX=1;entryY=0;entryDx=0;entryDy=0;exitX=0.25;exitY=1;exitDx=0;exitDy=0;" parent="1" source="QkZbBygxRby5PD8kks8j-270" target="QkZbBygxRby5PD8kks8j-308" edge="1">
          <mxGeometry relative="1" as="geometry">
            <mxPoint x="-250" y="820" as="sourcePoint" />
            <mxPoint x="-90" y="820" as="targetPoint" />
          </mxGeometry>
        </mxCell>
        <mxCell id="QkZbBygxRby5PD8kks8j-314" value="" style="endArrow=none;html=1;rounded=0;exitX=1;exitY=0;exitDx=0;exitDy=0;entryX=0;entryY=0.5;entryDx=0;entryDy=0;" parent="1" source="QkZbBygxRby5PD8kks8j-304" target="QkZbBygxRby5PD8kks8j-270" edge="1">
          <mxGeometry relative="1" as="geometry">
            <mxPoint x="-250" y="820" as="sourcePoint" />
            <mxPoint x="-90" y="820" as="targetPoint" />
          </mxGeometry>
        </mxCell>
        <mxCell id="QkZbBygxRby5PD8kks8j-315" value="قبول کردن سفر" style="shape=rhombus;perimeter=rhombusPerimeter;whiteSpace=wrap;html=1;align=center;" parent="1" vertex="1">
          <mxGeometry x="-610" y="230" width="120" height="60" as="geometry" />
        </mxCell>
        <mxCell id="QkZbBygxRby5PD8kks8j-317" value="" style="endArrow=none;html=1;rounded=0;entryX=0.43;entryY=0;entryDx=0;entryDy=0;exitX=0.5;exitY=0;exitDx=0;exitDy=0;entryPerimeter=0;" parent="1" source="QkZbBygxRby5PD8kks8j-315" target="swCDHV_uJjEk_oPD2tug-1" edge="1">
          <mxGeometry relative="1" as="geometry">
            <mxPoint x="-250" y="450" as="sourcePoint" />
            <mxPoint x="-90" y="450" as="targetPoint" />
            <Array as="points">
              <mxPoint x="-550" y="20" />
              <mxPoint x="-550" y="-40" />
              <mxPoint x="-120" y="-40" />
              <mxPoint x="430" y="-40" />
              <mxPoint x="430" y="20" />
            </Array>
          </mxGeometry>
        </mxCell>
        <mxCell id="QkZbBygxRby5PD8kks8j-319" value="" style="endArrow=none;html=1;rounded=0;entryX=0.343;entryY=0.857;entryDx=0;entryDy=0;exitX=0.25;exitY=0;exitDx=0;exitDy=0;entryPerimeter=0;" parent="1" source="QkZbBygxRby5PD8kks8j-239" target="QkZbBygxRby5PD8kks8j-315" edge="1">
          <mxGeometry relative="1" as="geometry">
            <mxPoint x="-250" y="450" as="sourcePoint" />
            <mxPoint x="-90" y="450" as="targetPoint" />
          </mxGeometry>
        </mxCell>
        <mxCell id="QkZbBygxRby5PD8kks8j-320" value="(0, n)" style="text;html=1;align=center;verticalAlign=middle;resizable=0;points=[];autosize=1;strokeColor=none;fillColor=none;" parent="1" vertex="1">
          <mxGeometry x="-560" y="190" width="50" height="30" as="geometry" />
        </mxCell>
        <mxCell id="QkZbBygxRby5PD8kks8j-321" value="(0,1)" style="text;html=1;align=center;verticalAlign=middle;resizable=0;points=[];autosize=1;strokeColor=none;fillColor=none;" parent="1" vertex="1">
          <mxGeometry x="-595" y="302" width="50" height="30" as="geometry" />
        </mxCell>
        <mxCell id="QkZbBygxRby5PD8kks8j-322" value="" style="endArrow=none;html=1;rounded=0;exitX=0.5;exitY=0;exitDx=0;exitDy=0;entryX=0.25;entryY=1;entryDx=0;entryDy=0;" parent="1" source="QkZbBygxRby5PD8kks8j-177" target="QkZbBygxRby5PD8kks8j-172" edge="1">
          <mxGeometry relative="1" as="geometry">
            <mxPoint x="-250" y="350" as="sourcePoint" />
            <mxPoint x="-90" y="350" as="targetPoint" />
          </mxGeometry>
        </mxCell>
        <mxCell id="QkZbBygxRby5PD8kks8j-323" value="نقاط ضعف راننده" style="ellipse;shape=doubleEllipse;margin=3;whiteSpace=wrap;html=1;align=center;" parent="1" vertex="1">
          <mxGeometry x="-740" y="285" width="100" height="40" as="geometry" />
        </mxCell>
        <mxCell id="QkZbBygxRby5PD8kks8j-324" value="نقاط قوت راننده" style="ellipse;shape=doubleEllipse;margin=3;whiteSpace=wrap;html=1;align=center;" parent="1" vertex="1">
          <mxGeometry x="-740" y="332" width="100" height="40" as="geometry" />
        </mxCell>
        <mxCell id="QkZbBygxRby5PD8kks8j-325" value="امتیاز به راننده" style="ellipse;whiteSpace=wrap;html=1;align=center;" parent="1" vertex="1">
          <mxGeometry x="-740" y="190" width="100" height="40" as="geometry" />
        </mxCell>
        <mxCell id="QkZbBygxRby5PD8kks8j-326" value="امتیاز به مشتری" style="ellipse;whiteSpace=wrap;html=1;align=center;" parent="1" vertex="1">
          <mxGeometry x="-740" y="240" width="100" height="40" as="geometry" />
        </mxCell>
        <mxCell id="QkZbBygxRby5PD8kks8j-332" value="" style="endArrow=none;html=1;rounded=0;exitX=0.165;exitY=0.363;exitDx=0;exitDy=0;exitPerimeter=0;entryX=1;entryY=0.5;entryDx=0;entryDy=0;" parent="1" source="QkZbBygxRby5PD8kks8j-315" target="QkZbBygxRby5PD8kks8j-325" edge="1">
          <mxGeometry relative="1" as="geometry">
            <mxPoint x="-250" y="450" as="sourcePoint" />
            <mxPoint x="-90" y="450" as="targetPoint" />
          </mxGeometry>
        </mxCell>
        <mxCell id="QkZbBygxRby5PD8kks8j-334" value="" style="endArrow=none;html=1;rounded=0;exitX=1;exitY=0.5;exitDx=0;exitDy=0;entryX=0;entryY=0.5;entryDx=0;entryDy=0;" parent="1" source="QkZbBygxRby5PD8kks8j-326" target="QkZbBygxRby5PD8kks8j-315" edge="1">
          <mxGeometry relative="1" as="geometry">
            <mxPoint x="-250" y="450" as="sourcePoint" />
            <mxPoint x="-90" y="450" as="targetPoint" />
          </mxGeometry>
        </mxCell>
        <mxCell id="QkZbBygxRby5PD8kks8j-335" value="" style="endArrow=none;html=1;rounded=0;exitX=1;exitY=0.5;exitDx=0;exitDy=0;entryX=0;entryY=1;entryDx=0;entryDy=0;" parent="1" source="QkZbBygxRby5PD8kks8j-324" target="QkZbBygxRby5PD8kks8j-315" edge="1">
          <mxGeometry relative="1" as="geometry">
            <mxPoint x="-250" y="450" as="sourcePoint" />
            <mxPoint x="-90" y="450" as="targetPoint" />
          </mxGeometry>
        </mxCell>
        <mxCell id="QkZbBygxRby5PD8kks8j-336" value="" style="endArrow=none;html=1;rounded=0;exitX=1;exitY=0.5;exitDx=0;exitDy=0;entryX=0.171;entryY=0.666;entryDx=0;entryDy=0;entryPerimeter=0;" parent="1" source="QkZbBygxRby5PD8kks8j-323" target="QkZbBygxRby5PD8kks8j-315" edge="1">
          <mxGeometry relative="1" as="geometry">
            <mxPoint x="-250" y="450" as="sourcePoint" />
            <mxPoint x="-90" y="450" as="targetPoint" />
          </mxGeometry>
        </mxCell>
        <mxCell id="QkZbBygxRby5PD8kks8j-339" value="گزارش دادن" style="shape=rhombus;perimeter=rhombusPerimeter;whiteSpace=wrap;html=1;align=center;" parent="1" vertex="1">
          <mxGeometry x="-45" y="50" width="120" height="60" as="geometry" />
        </mxCell>
        <mxCell id="QkZbBygxRby5PD8kks8j-340" value="" style="endArrow=none;html=1;rounded=0;entryX=1;entryY=0.5;entryDx=0;entryDy=0;exitX=0.25;exitY=0;exitDx=0;exitDy=0;" parent="1" source="swCDHV_uJjEk_oPD2tug-1" target="QkZbBygxRby5PD8kks8j-339" edge="1">
          <mxGeometry relative="1" as="geometry">
            <mxPoint x="-250" y="390" as="sourcePoint" />
            <mxPoint x="-90" y="390" as="targetPoint" />
            <Array as="points">
              <mxPoint x="410" y="80" />
            </Array>
          </mxGeometry>
        </mxCell>
        <mxCell id="QkZbBygxRby5PD8kks8j-343" value="(0, n)" style="text;html=1;align=center;verticalAlign=middle;resizable=0;points=[];autosize=1;strokeColor=none;fillColor=none;" parent="1" vertex="1">
          <mxGeometry x="-45" y="115" width="50" height="30" as="geometry" />
        </mxCell>
        <mxCell id="QkZbBygxRby5PD8kks8j-344" value="(0, m)" style="text;html=1;align=center;verticalAlign=middle;resizable=0;points=[];autosize=1;strokeColor=none;fillColor=none;" parent="1" vertex="1">
          <mxGeometry x="75" y="50" width="50" height="30" as="geometry" />
        </mxCell>
        <mxCell id="QkZbBygxRby5PD8kks8j-345" value="مرحله پیگیری" style="ellipse;whiteSpace=wrap;html=1;align=center;" parent="1" vertex="1">
          <mxGeometry x="-95" y="-10" width="100" height="40" as="geometry" />
        </mxCell>
        <mxCell id="QkZbBygxRby5PD8kks8j-346" value="شرح گزارش" style="ellipse;whiteSpace=wrap;html=1;align=center;" parent="1" vertex="1">
          <mxGeometry x="35" y="-10" width="100" height="40" as="geometry" />
        </mxCell>
        <mxCell id="QkZbBygxRby5PD8kks8j-347" value="" style="endArrow=none;html=1;rounded=0;entryX=0.5;entryY=1;entryDx=0;entryDy=0;exitX=1;exitY=0;exitDx=0;exitDy=0;" parent="1" source="QkZbBygxRby5PD8kks8j-339" target="QkZbBygxRby5PD8kks8j-346" edge="1">
          <mxGeometry relative="1" as="geometry">
            <mxPoint x="-250" y="250" as="sourcePoint" />
            <mxPoint x="-90" y="250" as="targetPoint" />
          </mxGeometry>
        </mxCell>
        <mxCell id="QkZbBygxRby5PD8kks8j-348" value="" style="endArrow=none;html=1;rounded=0;entryX=0.5;entryY=1;entryDx=0;entryDy=0;exitX=0;exitY=0;exitDx=0;exitDy=0;" parent="1" source="QkZbBygxRby5PD8kks8j-339" target="QkZbBygxRby5PD8kks8j-345" edge="1">
          <mxGeometry relative="1" as="geometry">
            <mxPoint x="-250" y="250" as="sourcePoint" />
            <mxPoint x="-90" y="250" as="targetPoint" />
          </mxGeometry>
        </mxCell>
        <mxCell id="umlDn6B3DRz233x1YHds-1" value="مقصد" style="ellipse;whiteSpace=wrap;html=1;align=center;" parent="1" vertex="1">
          <mxGeometry x="-485" y="740" width="80" height="30" as="geometry" />
        </mxCell>
        <mxCell id="umlDn6B3DRz233x1YHds-2" value="مقصد" style="ellipse;whiteSpace=wrap;html=1;align=center;" parent="1" vertex="1">
          <mxGeometry x="-740" y="860" width="100" height="40" as="geometry" />
        </mxCell>
        <mxCell id="umlDn6B3DRz233x1YHds-4" value="" style="endArrow=none;html=1;rounded=0;entryX=1;entryY=0.5;entryDx=0;entryDy=0;exitX=0.25;exitY=1;exitDx=0;exitDy=0;" parent="1" source="QkZbBygxRby5PD8kks8j-271" target="umlDn6B3DRz233x1YHds-2" edge="1">
          <mxGeometry relative="1" as="geometry">
            <mxPoint x="-110" y="630" as="sourcePoint" />
            <mxPoint x="50" y="630" as="targetPoint" />
          </mxGeometry>
        </mxCell>
        <mxCell id="umlDn6B3DRz233x1YHds-5" value="" style="endArrow=none;html=1;rounded=0;exitX=1;exitY=1;exitDx=0;exitDy=0;entryX=0.25;entryY=0;entryDx=0;entryDy=0;" parent="1" source="umlDn6B3DRz233x1YHds-1" target="QkZbBygxRby5PD8kks8j-270" edge="1">
          <mxGeometry relative="1" as="geometry">
            <mxPoint x="-110" y="630" as="sourcePoint" />
            <mxPoint x="50" y="630" as="targetPoint" />
          </mxGeometry>
        </mxCell>
        <mxCell id="umlDn6B3DRz233x1YHds-8" value="مسافت" style="ellipse;whiteSpace=wrap;html=1;align=center;dashed=1;" parent="1" vertex="1">
          <mxGeometry x="-300" y="545" width="100" height="40" as="geometry" />
        </mxCell>
        <mxCell id="umlDn6B3DRz233x1YHds-15" value="ماشین باری داشتن" style="shape=rhombus;perimeter=rhombusPerimeter;whiteSpace=wrap;html=1;align=center;" parent="1" vertex="1">
          <mxGeometry x="236" y="720" width="120" height="60" as="geometry" />
        </mxCell>
        <mxCell id="umlDn6B3DRz233x1YHds-16" value="" style="endArrow=none;html=1;rounded=0;exitX=1;exitY=0.5;exitDx=0;exitDy=0;entryX=0;entryY=0.5;entryDx=0;entryDy=0;" parent="1" source="QkZbBygxRby5PD8kks8j-31" target="umlDn6B3DRz233x1YHds-15" edge="1">
          <mxGeometry relative="1" as="geometry">
            <mxPoint x="210" y="480" as="sourcePoint" />
            <mxPoint x="370" y="480" as="targetPoint" />
          </mxGeometry>
        </mxCell>
        <mxCell id="hH_RSOjUAjIxhBM_FV5b-3" value="زمان پیش بینی پایان" style="ellipse;whiteSpace=wrap;html=1;align=center;" parent="1" vertex="1">
          <mxGeometry x="-300" y="490" width="100" height="40" as="geometry" />
        </mxCell>
        <mxCell id="hH_RSOjUAjIxhBM_FV5b-4" value="زمان پایان" style="ellipse;whiteSpace=wrap;html=1;align=center;" parent="1" vertex="1">
          <mxGeometry x="-300" y="655" width="100" height="40" as="geometry" />
        </mxCell>
        <mxCell id="hH_RSOjUAjIxhBM_FV5b-7" value="" style="endArrow=none;html=1;rounded=0;exitX=0.5;exitY=1;exitDx=0;exitDy=0;exitPerimeter=0;entryX=0;entryY=0.5;entryDx=0;entryDy=0;" parent="1" source="QkZbBygxRby5PD8kks8j-246" target="hH_RSOjUAjIxhBM_FV5b-3" edge="1">
          <mxGeometry relative="1" as="geometry">
            <mxPoint x="-300" y="810" as="sourcePoint" />
            <mxPoint x="-140" y="810" as="targetPoint" />
          </mxGeometry>
        </mxCell>
        <mxCell id="hH_RSOjUAjIxhBM_FV5b-9" value="" style="endArrow=none;html=1;rounded=0;entryX=0;entryY=0.5;entryDx=0;entryDy=0;exitX=1;exitY=1;exitDx=0;exitDy=0;" parent="1" source="QkZbBygxRby5PD8kks8j-239" target="hH_RSOjUAjIxhBM_FV5b-4" edge="1">
          <mxGeometry relative="1" as="geometry">
            <mxPoint x="-300" y="810" as="sourcePoint" />
            <mxPoint x="-140" y="810" as="targetPoint" />
          </mxGeometry>
        </mxCell>
        <mxCell id="78tZAL0q7NXW9u_ID6VV-1" value="مبلغ" style="ellipse;whiteSpace=wrap;html=1;align=center;" parent="1" vertex="1">
          <mxGeometry x="10" y="250" width="100" height="40" as="geometry" />
        </mxCell>
        <mxCell id="78tZAL0q7NXW9u_ID6VV-2" value="" style="endArrow=none;html=1;rounded=0;entryX=0.5;entryY=1;entryDx=0;entryDy=0;exitX=0.5;exitY=0;exitDx=0;exitDy=0;" parent="1" source="QkZbBygxRby5PD8kks8j-210" target="78tZAL0q7NXW9u_ID6VV-1" edge="1">
          <mxGeometry relative="1" as="geometry">
            <mxPoint x="-80" y="430" as="sourcePoint" />
            <mxPoint x="80" y="430" as="targetPoint" />
          </mxGeometry>
        </mxCell>
        <mxCell id="_IKeNrP1dFEX81yg3308-1" value="مختصات مشتری" style="ellipse;whiteSpace=wrap;html=1;align=center;" vertex="1" parent="1">
          <mxGeometry x="-575" y="490" width="100" height="40" as="geometry" />
        </mxCell>
        <mxCell id="_IKeNrP1dFEX81yg3308-2" value="" style="endArrow=none;html=1;rounded=0;exitX=0;exitY=0;exitDx=0;exitDy=0;entryX=1;entryY=0.5;entryDx=0;entryDy=0;" edge="1" parent="1" source="QkZbBygxRby5PD8kks8j-239" target="_IKeNrP1dFEX81yg3308-1">
          <mxGeometry relative="1" as="geometry">
            <mxPoint x="40" y="510" as="sourcePoint" />
            <mxPoint x="200" y="510" as="targetPoint" />
          </mxGeometry>
        </mxCell>
        <mxCell id="_IKeNrP1dFEX81yg3308-3" value="مختصات" style="ellipse;whiteSpace=wrap;html=1;align=center;" vertex="1" parent="1">
          <mxGeometry x="555" y="60" width="100" height="40" as="geometry" />
        </mxCell>
        <mxCell id="_IKeNrP1dFEX81yg3308-4" value="" style="endArrow=none;html=1;rounded=0;entryX=0;entryY=0.5;entryDx=0;entryDy=0;exitX=0.86;exitY=0.05;exitDx=0;exitDy=0;exitPerimeter=0;" edge="1" parent="1" source="swCDHV_uJjEk_oPD2tug-1" target="_IKeNrP1dFEX81yg3308-3">
          <mxGeometry relative="1" as="geometry">
            <mxPoint x="40" y="510" as="sourcePoint" />
            <mxPoint x="200" y="510" as="targetPoint" />
            <Array as="points">
              <mxPoint x="480" y="80" />
            </Array>
          </mxGeometry>
        </mxCell>
        <mxCell id="_IKeNrP1dFEX81yg3308-6" value="نوع پرداخت" style="ellipse;whiteSpace=wrap;html=1;align=center;" vertex="1" parent="1">
          <mxGeometry x="-740" y="135" width="100" height="40" as="geometry" />
        </mxCell>
        <mxCell id="_IKeNrP1dFEX81yg3308-7" value="" style="endArrow=none;html=1;rounded=0;exitX=1;exitY=0.5;exitDx=0;exitDy=0;entryX=0;entryY=0;entryDx=0;entryDy=0;" edge="1" parent="1" source="_IKeNrP1dFEX81yg3308-6" target="QkZbBygxRby5PD8kks8j-315">
          <mxGeometry relative="1" as="geometry">
            <mxPoint x="-370" y="340" as="sourcePoint" />
            <mxPoint x="-210" y="340" as="targetPoint" />
          </mxGeometry>
        </mxCell>
        <mxCell id="_IKeNrP1dFEX81yg3308-9" value="" style="endArrow=none;html=1;rounded=0;exitX=0.5;exitY=1;exitDx=0;exitDy=0;entryX=0.5;entryY=0;entryDx=0;entryDy=0;" edge="1" parent="1" source="QkZbBygxRby5PD8kks8j-130" target="QkZbBygxRby5PD8kks8j-124">
          <mxGeometry relative="1" as="geometry">
            <mxPoint x="780" y="170" as="sourcePoint" />
            <mxPoint x="940" y="170" as="targetPoint" />
          </mxGeometry>
        </mxCell>
        <mxCell id="_IKeNrP1dFEX81yg3308-10" value="" style="endArrow=none;html=1;rounded=0;exitX=1;exitY=0;exitDx=0;exitDy=0;entryX=0.395;entryY=0.997;entryDx=0;entryDy=0;entryPerimeter=0;" edge="1" parent="1" source="QkZbBygxRby5PD8kks8j-119" target="QkZbBygxRby5PD8kks8j-164">
          <mxGeometry relative="1" as="geometry">
            <mxPoint x="840" y="250" as="sourcePoint" />
            <mxPoint x="1000" y="250" as="targetPoint" />
          </mxGeometry>
        </mxCell>
        <mxCell id="_IKeNrP1dFEX81yg3308-11" value="" style="endArrow=none;html=1;rounded=0;exitX=1;exitY=0.5;exitDx=0;exitDy=0;entryX=0;entryY=0.75;entryDx=0;entryDy=0;" edge="1" parent="1" source="swCDHV_uJjEk_oPD2tug-32" target="swCDHV_uJjEk_oPD2tug-1">
          <mxGeometry relative="1" as="geometry">
            <mxPoint x="360" y="260" as="sourcePoint" />
            <mxPoint x="520" y="260" as="targetPoint" />
            <Array as="points" />
          </mxGeometry>
        </mxCell>
        <mxCell id="_IKeNrP1dFEX81yg3308-12" value="" style="endArrow=none;html=1;rounded=0;entryX=0.5;entryY=0;entryDx=0;entryDy=0;" edge="1" parent="1" source="QkZbBygxRby5PD8kks8j-119" target="QkZbBygxRby5PD8kks8j-167">
          <mxGeometry relative="1" as="geometry">
            <mxPoint x="790" y="181" as="sourcePoint" />
            <mxPoint x="970" y="200" as="targetPoint" />
          </mxGeometry>
        </mxCell>
        <mxCell id="_IKeNrP1dFEX81yg3308-13" value="" style="endArrow=none;html=1;rounded=0;exitX=0.701;exitY=0.105;exitDx=0;exitDy=0;exitPerimeter=0;entryX=0.329;entryY=0.806;entryDx=0;entryDy=0;entryPerimeter=0;" edge="1" parent="1" source="QkZbBygxRby5PD8kks8j-166" target="QkZbBygxRby5PD8kks8j-119">
          <mxGeometry relative="1" as="geometry">
            <mxPoint x="810" y="200" as="sourcePoint" />
            <mxPoint x="970" y="200" as="targetPoint" />
          </mxGeometry>
        </mxCell>
        <mxCell id="_IKeNrP1dFEX81yg3308-14" value="" style="endArrow=none;html=1;rounded=0;exitX=1;exitY=0;exitDx=0;exitDy=0;entryX=0.301;entryY=0.8;entryDx=0;entryDy=0;entryPerimeter=0;" edge="1" parent="1" source="QkZbBygxRby5PD8kks8j-172" target="QkZbBygxRby5PD8kks8j-339">
          <mxGeometry relative="1" as="geometry">
            <mxPoint y="300" as="sourcePoint" />
            <mxPoint x="160" y="300" as="targetPoint" />
          </mxGeometry>
        </mxCell>
        <mxCell id="_IKeNrP1dFEX81yg3308-15" value="زمان ثبت نام" style="ellipse;whiteSpace=wrap;html=1;align=center;" vertex="1" parent="1">
          <mxGeometry x="840" y="285" width="100" height="40" as="geometry" />
        </mxCell>
        <mxCell id="_IKeNrP1dFEX81yg3308-17" value="" style="endArrow=none;html=1;rounded=0;exitX=0.25;exitY=1;exitDx=0;exitDy=0;entryX=1;entryY=0.5;entryDx=0;entryDy=0;" edge="1" parent="1" source="QkZbBygxRby5PD8kks8j-124" target="_IKeNrP1dFEX81yg3308-15">
          <mxGeometry relative="1" as="geometry">
            <mxPoint x="780" y="280" as="sourcePoint" />
            <mxPoint x="940" y="280" as="targetPoint" />
          </mxGeometry>
        </mxCell>
        <mxCell id="_IKeNrP1dFEX81yg3308-18" value="زمان ثبت نام" style="ellipse;whiteSpace=wrap;html=1;align=center;" vertex="1" parent="1">
          <mxGeometry x="590" y="342" width="100" height="40" as="geometry" />
        </mxCell>
        <mxCell id="_IKeNrP1dFEX81yg3308-19" value="" style="endArrow=none;html=1;rounded=0;entryX=0;entryY=0.5;entryDx=0;entryDy=0;exitX=0.809;exitY=1.053;exitDx=0;exitDy=0;exitPerimeter=0;" edge="1" parent="1" source="swCDHV_uJjEk_oPD2tug-1" target="_IKeNrP1dFEX81yg3308-18">
          <mxGeometry relative="1" as="geometry">
            <mxPoint x="450" y="280" as="sourcePoint" />
            <mxPoint x="610" y="280" as="targetPoint" />
            <Array as="points">
              <mxPoint x="472" y="370" />
            </Array>
          </mxGeometry>
        </mxCell>
        <mxCell id="_IKeNrP1dFEX81yg3308-20" value="زمان ثبت نام" style="ellipse;whiteSpace=wrap;html=1;align=center;" vertex="1" parent="1">
          <mxGeometry x="-170" y="100" width="100" height="40" as="geometry" />
        </mxCell>
        <mxCell id="_IKeNrP1dFEX81yg3308-21" value="" style="endArrow=none;html=1;rounded=0;entryX=0.832;entryY=0.053;entryDx=0;entryDy=0;entryPerimeter=0;" edge="1" parent="1" target="QkZbBygxRby5PD8kks8j-172">
          <mxGeometry relative="1" as="geometry">
            <mxPoint x="-120" y="140" as="sourcePoint" />
            <mxPoint x="-340" y="280" as="targetPoint" />
          </mxGeometry>
        </mxCell>
        <mxCell id="_IKeNrP1dFEX81yg3308-22" value="" style="endArrow=none;html=1;rounded=0;exitX=0.636;exitY=0.869;exitDx=0;exitDy=0;exitPerimeter=0;entryX=0;entryY=1;entryDx=0;entryDy=0;" edge="1" parent="1" source="QkZbBygxRby5PD8kks8j-315" target="QkZbBygxRby5PD8kks8j-210">
          <mxGeometry relative="1" as="geometry">
            <mxPoint x="-500" y="420" as="sourcePoint" />
            <mxPoint x="-340" y="420" as="targetPoint" />
            <Array as="points">
              <mxPoint x="-440" y="450" />
              <mxPoint x="-230" y="420" />
            </Array>
          </mxGeometry>
        </mxCell>
        <mxCell id="_IKeNrP1dFEX81yg3308-23" value="(0,1)" style="text;html=1;align=center;verticalAlign=middle;resizable=0;points=[];autosize=1;strokeColor=none;fillColor=none;" vertex="1" parent="1">
          <mxGeometry x="-535" y="270" width="50" height="30" as="geometry" />
        </mxCell>
      </root>
    </mxGraphModel>
  </diagram>
</mxfile>
